<svg width="1280" height="720" viewBox="0 0 1280 720" fill="none" xmlns="http://www.w3.org/2000/svg">
<rect width="1280" height="720" fill="url(#paint0_radial)"/>
<path d="M1164.59 358.506H1179.6C1181.1 358.506 1182 359.224 1182 359.224V459.413H918.11C918.11 360.141 918 359.044 918 297.413C922.099 295.639 925.885 293.206 929.502 290.624C932.565 288.437 937.36 289.191 939.936 286.102C941.812 283.852 942.844 280.079 945.526 278.548C946.885 277.771 948.606 276.467 949.146 274.983C950.335 271.717 951.272 272.571 953.911 273.494C956.746 274.485 958.956 275.068 962.162 274.691C963.948 274.481 966.705 273.404 968.577 272.908C970.376 272.433 972.272 271.123 974.167 270.514C975.982 269.931 979.588 272.017 981.141 273.015C982.955 274.18 983.839 275.213 985.08 277.005C987.766 280.881 993.158 281.28 996.207 284.665C997.719 286.345 998.972 287.425 1000.04 289.56C1001.03 291.538 1001.97 293.973 1003.77 295.412C1006.27 297.41 1008.43 298.868 1010.23 301.529C1012.16 304.372 1013.06 307.086 1016.04 308.977C1019.48 311.167 1022.28 313.924 1025.33 316.585C1028.11 319.02 1031.53 320.214 1034.59 322.304C1036.93 323.907 1039.58 325.116 1042.2 326.187C1044.64 327.184 1047.17 327.925 1049.74 328.501C1050.17 328.599 1051.33 328.623 1051.68 329.06C1052.41 329.976 1057.11 329.936 1058.31 330.257C1060.43 330.827 1062.87 331.323 1064.8 332.438C1066.47 333.401 1067.78 335.499 1069.41 336.667C1071.86 338.431 1074.98 339.001 1077.92 339.327C1081.47 339.721 1084.96 339.833 1088.52 339.833C1089.55 339.833 1091.08 339.51 1091.98 340.072C1093.24 340.859 1095.8 341.305 1097.3 341.854C1098.59 342.325 1100.01 342.42 1101.35 342.705C1106.96 343.898 1111.77 344.934 1117 347.174C1119.76 348.355 1122.83 349.372 1125.84 349.409C1129.06 349.448 1131.76 348.924 1134.57 350.366C1138.1 352.18 1140.78 352.76 1144.73 352.76C1147.72 352.76 1155.68 352.571 1157.19 355.42C1158.77 358.396 1161.71 358.506 1164.59 358.506Z" fill="#D86214"/>
<path d="M1069.41 336.667C1071.86 338.431 1074.98 339.001 1077.92 339.327C1077.03 339.327 1073.59 343.784 1072.64 343.784C1071.23 343.784 1070.43 342.721 1069.23 342.503C1068.54 342.378 1067.19 342.551 1066.6 342.257C1065.77 341.841 1065.83 340.828 1064.8 340.6C1063 340.2 1060.57 340.174 1059.58 338.38C1059.09 337.507 1058.03 337.018 1057.1 337.018C1055.49 337.018 1054.03 336.917 1052.43 336.642C1051.41 336.466 1050.41 336.223 1049.39 336.043C1048.03 335.803 1045.78 335.015 1044.57 335.843C1043.59 336.506 1042.67 336.384 1041.52 336.384H1038.34C1037.91 336.384 1037.15 336.53 1036.74 336.29C1035.83 335.749 1035.19 335.174 1034.13 335.115C1033.38 335.073 1032.86 334.481 1032.04 334.481C1030.91 334.481 1029.75 334.4 1028.63 334.504C1025.27 334.816 1022.72 336.557 1022.62 340.095C1022.59 341.548 1022.84 342.89 1021.33 343.478C1019.7 344.114 1017.84 344.569 1016.28 345.311C1015.01 345.914 1012.8 347.129 1011.43 346.309C1010.42 345.702 1006.88 342.344 1005.99 343.196C1004.16 344.966 1001.94 346.305 1000.18 348.153C999.072 349.314 997.581 350.028 996.36 351.066C995.372 351.906 994.405 352.756 993.447 353.627C991.371 355.515 991.952 357.418 992.155 360.063C992.275 361.615 992.517 362.492 991.098 363.188C990.364 363.548 989.601 363.446 988.796 363.446C987.283 363.446 986.063 363.554 984.709 362.741C983.08 361.764 981.774 361.272 980.644 359.629C980.235 359.033 980.044 358.924 979.504 358.616L979.446 358.583C978.982 358.318 978.227 358.6 977.849 358.325C977.37 357.976 976.843 357.842 976.322 357.409C975.687 356.88 975.284 356.09 974.584 355.623C974.302 355.435 973.591 355.2 973.256 355.2C972.207 355.2 971.16 354.25 970.308 353.72L970.282 353.704C969.173 353.014 968.756 352.755 967.513 353.086C966.851 353.263 965.957 353.461 965.281 353.509C963.464 353.639 961.512 353.901 959.819 354.578C956.595 355.867 953.534 356.582 951.374 353.462C951.207 353.221 951.094 352.612 950.81 352.499C950.151 352.235 949.425 352.091 948.755 351.829C947.498 351.339 947.005 351.237 945.595 351.172C944.482 351.12 940.383 350.498 941.061 348.599C941.348 347.797 942.071 346.66 941.836 345.78C941.667 345.146 939.99 343.038 939.323 342.938C938.646 342.836 937.841 342.42 937.314 341.975C936.506 341.291 935.756 340.964 934.895 340.389C933.952 339.761 933.148 339.23 932.134 338.709C931.5 338.384 931.5 338.124 931.5 337.472L931.5 337.441C931.5 336.063 933.75 334.926 934.906 334.669C935.825 334.465 936.571 333.736 937.467 333.471C938.921 333.04 940.372 332.433 941.707 331.65C942.237 331.339 942.957 331.076 943.41 330.663C943.721 330.381 943.624 329.62 943.81 329.242C944.476 327.889 947.008 326.864 948.414 326.494C949.579 326.187 950.825 326.199 951.996 325.895C953.465 325.513 954.875 324.725 956.26 324.109C959.639 322.607 963.199 323.3 966.761 322.9C967.293 322.84 969.59 322.676 968.194 322.101C967.611 321.861 967.456 321.272 966.972 320.95C966.005 320.305 964.305 320.07 965.528 318.847C965.871 318.504 966.2 318.142 965.633 317.884C964.625 317.426 962.86 317.778 961.734 317.778C960.759 317.778 960.092 317.405 959.408 316.721C958.724 316.037 961.18 315.252 961.558 314.63C962.221 313.538 958.898 313.973 958.257 313.973C956.866 313.973 955.212 313.738 953.864 314.137C952.454 314.555 950.857 313.525 949.471 313.327C949.009 313.261 947.985 313.252 947.615 313.033C947.034 312.688 946.379 312.322 945.665 312.281C944.391 312.208 942.82 311.372 941.601 310.966C940.644 310.647 939.72 310.119 938.876 309.603C937.904 309.009 937.487 308.157 936.739 307.372C936.483 307.103 936.108 306.394 935.682 306.361C934.642 306.281 933.751 305.727 932.663 305.727C932.279 305.727 931.087 306.251 931.711 305.715C932.539 305.006 933.43 304.544 934.413 304.059C935.482 303.533 936.962 302.519 938.219 302.556C938.654 302.569 939.005 303 939.393 303.155C939.629 303.249 940.968 302.806 941.179 302.673C941.721 302.332 942.17 301.799 942.753 301.452C944.056 300.676 946.239 301.071 947.768 300.759C949.288 300.448 951.229 300.396 952.642 299.76C953.126 299.543 953.467 299.551 953.653 298.962C954.671 295.72 961.355 296.847 964.059 296.847C965.372 296.847 968.282 295.003 966.761 293.629C965.896 292.847 964.671 292.701 963.942 291.773C963.684 291.445 963.077 290.863 962.673 290.716C961.485 290.284 955.509 288.703 955.602 287.122C955.643 286.43 957.315 285.202 957.822 284.796C958.027 284.632 958.636 283.992 958.727 283.786C959.263 282.567 960.362 281.982 961.5 281.413L968.577 272.908C970.376 272.433 972.272 271.123 974.167 270.514C975.982 269.931 979.588 272.017 981.141 273.015C982.955 274.18 983.839 275.213 985.08 277.005C987.766 280.881 993.158 281.28 996.207 284.665C997.719 286.345 998.972 287.425 1000.04 289.56C1001.03 291.538 1001.97 293.973 1003.77 295.412C1006.27 297.41 1008.43 298.868 1010.23 301.529C1012.16 304.372 1013.06 307.086 1016.04 308.977C1019.48 311.167 1022.28 313.924 1025.33 316.585C1028.11 319.02 1031.53 320.214 1034.59 322.304C1036.93 323.907 1039.58 325.116 1042.2 326.187C1044.64 327.184 1047.17 327.925 1049.74 328.501C1050.17 328.599 1051.33 328.623 1051.68 329.06C1052.41 329.976 1057.11 329.936 1058.31 330.257C1060.43 330.827 1062.87 331.323 1064.8 332.438C1066.47 333.401 1067.78 335.499 1069.41 336.667Z" fill="#D86214"/>
<path d="M944.415 369.496H921.681C919.416 369.496 918.053 370.585 918.053 370.585V522.413H1458.68V372.802C1457.81 366.407 1460.06 366.036 1454.97 365.143C1450.1 365.143 1451.89 358.914 1449.17 356.033C1446.96 353.69 1442.69 353.772 1440.1 351.76C1436.26 348.779 1431.5 344.851 1426.72 343.416C1423.76 342.529 1419.28 339.45 1417.32 337.168C1414.01 333.308 1412.51 332.607 1407.41 330.598C1403.24 328.955 1399.3 326.844 1395.23 324.995C1393.37 324.146 1391.47 323.896 1390.4 322.012C1387.65 317.211 1379.51 314.587 1375.12 312.459C1368.29 309.149 1361.48 305.5 1355.17 301.293C1353.07 299.894 1352.27 298.637 1350.69 296.94C1348.22 294.28 1342.21 292.963 1339 291.216C1334.76 288.901 1331.19 286.184 1327.11 283.718C1323.43 281.492 1321.86 279 1317.68 277.188C1311.47 274.498 1305.9 270.54 1300.43 266.627C1295.79 263.314 1288.53 264.456 1284.63 259.774C1281.78 256.365 1280.22 250.648 1276.16 248.327C1274.1 247.15 1271.5 245.174 1270.68 242.925C1268.88 237.975 1267.46 239.269 1263.46 240.668C1259.17 242.171 1255.82 243.053 1250.97 242.482C1248.26 242.164 1244.09 240.532 1241.25 239.781C1238.53 239.06 1235.66 237.076 1232.79 236.153C1230.04 235.27 1224.58 238.431 1222.23 239.942C1219.48 241.708 1218.14 243.273 1216.26 245.989C1212.19 251.863 1204.03 252.468 1199.41 257.598C1197.12 260.143 1195.22 261.78 1193.61 265.015C1192.11 268.013 1190.69 271.702 1187.96 273.883C1184.18 276.911 1180.91 279.12 1178.17 283.154C1175.25 287.462 1173.89 291.574 1169.38 294.44C1164.17 297.758 1159.92 301.937 1155.31 305.969C1151.1 309.66 1145.91 311.468 1141.29 314.635C1137.73 317.065 1133.73 318.897 1129.76 320.52C1126.07 322.031 1122.24 323.154 1118.35 324.027C1117.69 324.176 1115.94 324.211 1115.41 324.874C1114.3 326.262 1107.18 326.201 1105.37 326.688C1102.16 327.552 1098.45 328.303 1095.53 329.993C1093.02 331.452 1091.03 334.631 1088.56 336.402C1084.84 339.076 1080.11 339.939 1075.66 340.433C1070.3 341.029 1065.01 341.199 1059.62 341.199C1058.06 341.199 1055.74 340.71 1054.38 341.562C1052.47 342.755 1048.59 343.431 1046.32 344.263C1044.37 344.976 1042.22 345.121 1040.19 345.553C1031.68 347.36 1024.41 348.929 1016.49 352.324C1012.31 354.114 1007.65 355.655 1003.11 355.71C998.23 355.77 994.133 354.976 989.884 357.162C984.538 359.911 980.475 360.789 974.486 360.789C969.967 360.789 957.907 360.503 955.621 364.82C953.234 369.33 948.78 369.496 944.415 369.496Z" fill="#D86214"/>
<path d="M1237.47 250.449C1235.57 250.449 1240.96 240.5 1241.25 239.781C1238.53 239.06 1235.66 237.076 1232.79 236.153C1230.04 235.27 1224.58 238.431 1222.23 239.942C1219.48 241.708 1218.14 243.273 1216.26 245.989C1212.19 251.863 1204.03 252.468 1199.41 257.598C1197.12 260.143 1195.22 261.78 1193.61 265.015C1192.11 268.013 1190.69 271.702 1187.96 273.883C1184.18 276.911 1180.91 279.12 1178.17 283.154C1175.25 287.462 1173.89 291.574 1169.38 294.44C1164.17 297.758 1159.92 301.937 1155.31 305.969C1151.1 309.66 1145.91 311.468 1141.29 314.635C1137.73 317.065 1133.73 318.897 1129.76 320.52C1126.07 322.031 1122.24 323.154 1118.35 324.027C1117.69 324.176 1115.94 324.211 1115.41 324.874C1114.3 326.262 1107.18 326.201 1105.37 326.688C1102.16 327.552 1098.45 328.303 1095.53 329.993C1093.02 331.452 1091.03 334.631 1088.56 336.402C1084.84 339.076 1080.11 339.939 1075.66 340.433C1070.3 341.029 1065.01 341.199 1059.62 341.199C1058.06 341.199 1055.74 340.71 1054.38 341.562C1052.47 342.755 1048.59 343.431 1046.32 344.263C1044.37 344.976 1042.22 345.121 1040.19 345.553C1031.68 347.36 1024.41 348.929 1016.49 352.324C1012.31 354.114 1007.65 355.655 1003.11 355.71C998.23 355.77 994.133 354.976 989.884 357.162C984.538 359.911 980.475 360.789 974.486 360.789C969.967 360.789 957.907 360.503 955.621 364.82C953.234 369.33 948.78 369.496 944.415 369.496H918.053V374.913L926 377.913L943.5 372.413L958 370.585L982 364.82H994L1000 366.413H1013.5C1015.1 366.413 1022.17 362.664 1025.5 360.789C1025.5 360.789 1029.32 352.09 1034 352.324C1036.75 352.462 1037.55 354.917 1040.19 355.71C1043.86 356.813 1045.33 355.042 1050.5 353.913C1056.27 353.913 1061.35 357.923 1066.33 354.832C1068.66 353.388 1070.78 352.098 1073.63 352.454C1074.63 352.579 1075.28 353.389 1076.35 353.389C1077.62 353.389 1078.92 353.155 1080.15 352.881C1084.85 351.835 1091.23 353.644 1095.33 351.251C1098.71 349.276 1100.01 346.173 1104.44 346.173C1106.51 346.173 1108.47 346.736 1110.21 347.857C1112.56 349.363 1112.21 351.465 1115.29 351.465H1128.01C1129.1 351.465 1130.58 351.715 1131.59 351.251C1133.36 350.443 1132.71 350.198 1133.41 348.792C1134.7 346.214 1141.52 345.165 1144.33 344.732L1144.34 344.73C1146.77 344.356 1149.21 343.365 1151.69 343.287C1154.74 343.192 1156.6 341.796 1158.1 339.199C1159.76 336.339 1163.97 340.189 1165.42 341.523C1167.8 343.7 1169.95 347.12 1172.64 348.846C1173.87 349.637 1178.34 349.541 1179.96 349.541C1182.05 349.541 1183.62 347.297 1185.28 346.36C1187.83 344.924 1189.88 342.65 1192.23 340.909C1194.41 339.29 1195.72 337.574 1198.56 337.515C1199.24 337.501 1205.49 336.8 1205.91 338.263C1206.87 341.619 1213.69 341.195 1216.04 341.363C1218.51 341.54 1221.21 348.546 1224.32 346.28C1225.53 345.405 1227.5 345.716 1228.57 344.463C1230.03 342.758 1232.1 341.681 1234.02 340.615C1235.41 339.844 1236.23 338.477 1237.95 338.477C1242.4 338.477 1246.83 338.572 1251.26 338.103C1252.8 337.94 1254.4 337.225 1255.86 336.713C1257.49 336.14 1260.23 335.779 1261.52 334.415C1262.8 333.065 1264.35 330.315 1265.1 328.616C1266.04 326.509 1268.39 326.127 1270.29 325.382C1271.64 324.85 1272.32 323.493 1272.32 322.149C1272.32 320.712 1273.97 320.379 1274.22 319.022C1274.32 318.469 1271.33 317.011 1270.64 316.857C1268.8 316.45 1266.98 315.51 1265.1 315.014C1263.03 314.465 1260.82 314.156 1258.96 313.089C1254.83 310.73 1250.58 307.691 1245.59 307.691C1241.9 307.691 1229.76 309.075 1229.99 303.255C1230.05 301.751 1234.31 300.127 1235.47 299.327C1237.29 298.064 1240.35 297.27 1242.49 296.253C1245.03 295.054 1245.65 294.363 1247.38 292.456L1247.52 292.298C1249.41 290.21 1250.61 287.488 1253.77 287.488C1255.44 287.488 1257.24 287.695 1258.85 287.248C1261.08 286.629 1266.32 288.005 1265 283.747C1264.49 282.129 1260.81 281.336 1259.44 280.861C1257.87 280.317 1256.16 280.608 1254.73 279.792C1253.09 278.854 1251.21 277.491 1249.23 277.387C1245.52 277.191 1241.7 274.244 1238.14 273.057C1235.7 272.245 1238.79 271.595 1239.5 270.171C1240.3 268.566 1239.98 268.738 1241.91 268.14C1244.04 267.479 1246.7 266.621 1246.32 263.918C1246.06 262.106 1243.77 261.994 1247.04 261.994C1248.77 261.994 1249.94 260.677 1251.15 259.589C1251.67 259.123 1257.81 256.721 1254.97 256.248C1252.24 255.793 1248.37 256.243 1246.24 254.19C1243.7 251.756 1241.01 250.449 1237.47 250.449Z" fill="#E36B1B"/>
<path d="M1024.43 404.303C1024.43 404.303 1013 404.733 1000.31 404.733H456.5V406L406.875 379.75L378.25 359.5L349.625 339.25L321 319C321 319 305.6 299.91 295 293.5C282.677 286.048 271.123 285.967 271.123 285.967C269.596 284.695 261.525 282.4 259.282 282.141C256.351 281.803 254.429 280.077 251.145 279.955C248.401 279.854 246.112 278.862 243.191 278.862C234.8 278.862 225.869 275.946 218.963 271.09C212.333 266.428 212.14 264.759 204.511 265.504C200.819 265.864 197.303 266.315 193.824 266.779C182.291 268.317 176.982 262.92 166.378 259.432C160.663 257.552 149.326 261.789 144.822 266.293C138.385 272.73 134.024 279.955 124.358 279.955C116.01 279.955 106.053 278.681 99.7053 285.663C94.3194 291.588 92.8304 300.475 83.7354 302.848C79.1596 304.041 74.2439 309.917 70.3159 312.745C65.2837 316.368 60.614 320.344 55.6819 323.797C46.2585 330.393 29.1078 325.056 23.4994 335.152C17.4034 346.124 13.6804 351 0 351V720H1280V414C1273.8 411.932 1272.72 408.302 1268.26 404.733C1262.42 400.06 1252.47 396.822 1248.18 390.197C1246.22 387.164 1244.52 390.698 1244.52 385.567C1244.52 380.653 1244.39 376.565 1243.12 371.838C1242.52 369.617 1241.95 363.92 1239.14 363.116C1236.82 362.453 1234.35 362.614 1231.92 361.877C1230.54 361.458 1227 359.236 1225.89 358.432C1223.78 356.895 1222.25 357.483 1220.78 354.824C1219.56 352.627 1218.49 350.008 1215.93 349.44C1212.48 348.674 1209.9 342.269 1207.69 339.803C1204.55 336.286 1198.74 329.889 1194.67 327.851C1190.52 325.777 1185.37 328.18 1181.04 326.182C1176.75 324.202 1176.5 320.421 1171.25 320.421C1167.59 320.421 1163.86 320.218 1160.21 320.421C1157.74 320.558 1153.97 323.305 1151.92 324.513C1150.12 325.568 1151.72 328.174 1147.99 328.174H1147.93C1140.41 328.174 1129.33 328.174 1122.41 331.835C1116.01 335.225 1112.08 341.741 1103.46 341.741C1088.34 341.741 1086.4 340.901 1080.1 354.232C1077.63 359.442 1076.85 364.636 1073.1 368.984C1069.12 373.58 1065.13 379.582 1059.96 382.875C1053.15 387.206 1046.42 391.486 1038.85 394.289C1033.03 396.447 1024.43 404.303 1024.43 404.303Z" fill="#331806"/>
<path d="M1015.71 303.047L1023.5 288L1031.14 303.047H1028.33L1037.22 321.197H1032.07L1041.11 341.985H1036.13L1045.32 366.96H1041.11L1050 394.108H1027.24V409H1019.76V394.108H997L1005.73 366.96H1001.52L1011.19 341.985H1005.73L1014.46 321.197H1009.63L1018.51 303.047H1015.71Z" fill="#331806"/>
<defs>
<radialGradient id="paint0_radial" cx="0" cy="0" r="1" gradientUnits="userSpaceOnUse" gradientTransform="translate(592 585.5) rotate(-91.4985) scale(420.644 1472.97)">
<stop stop-color="#FFF9BE"/>
<stop offset="1" stop-color="#E07024"/>
</radialGradient>
</defs>
</svg>
