<svg width="360" height="400" viewBox="0 0 360 400" fill="none" xmlns="http://www.w3.org/2000/svg">
<g clip-path="url(#clip0)">
<path d="M0 0H360V400H0V0Z" fill="url(#paint0_radial)"/>
<g filter="url(#filter0_d)">
<circle cx="163.5" cy="247.5" r="31.5" fill="#FFFDCF"/>
</g>
<path d="M246.592 236.092H261.604C263.1 236.092 264 236.81 264 236.81V337H0.109589C0.109589 237.727 0 236.631 0 175C4.09857 173.225 7.88477 170.792 11.5021 168.21C14.565 166.024 19.3599 166.778 21.9363 163.688C23.8124 161.439 24.8438 157.666 27.5261 156.134C28.8853 155.358 30.6062 154.054 31.1461 152.57C32.3347 149.303 33.2721 150.157 35.9107 151.08C38.7465 152.072 40.9562 152.654 44.1623 152.277C45.948 152.067 48.7046 150.99 50.5772 150.495C52.376 150.019 54.2715 148.71 56.167 148.101C57.9824 147.518 61.5882 149.604 63.1409 150.601C64.9551 151.767 65.8389 152.799 67.0804 154.591C69.7659 158.468 75.1579 158.867 78.2067 162.252C79.7193 163.932 80.9717 165.012 82.0396 167.146C83.0295 169.125 83.9664 171.559 85.7662 172.998C88.2662 174.997 90.4269 176.454 92.2343 179.116C94.1646 181.959 95.0624 184.672 98.037 186.564C101.48 188.753 104.284 191.511 107.327 194.171C110.112 196.607 113.533 197.801 116.59 199.89C118.935 201.494 121.582 202.702 124.202 203.774C126.641 204.771 129.167 205.512 131.735 206.088C132.172 206.186 133.328 206.209 133.678 206.647C134.412 207.563 139.114 207.523 140.306 207.844C142.427 208.414 144.873 208.909 146.801 210.025C148.465 210.987 149.779 213.085 151.406 214.254C153.862 216.018 156.985 216.588 159.924 216.914C163.466 217.307 166.956 217.419 170.518 217.419C171.546 217.419 173.078 217.097 173.978 217.659C175.238 218.446 177.803 218.892 179.302 219.441C180.587 219.912 182.006 220.007 183.348 220.292C188.965 221.485 193.768 222.52 198.999 224.761C201.757 225.942 204.834 226.959 207.836 226.995C211.056 227.034 213.761 226.511 216.567 227.953C220.097 229.767 222.78 230.347 226.735 230.347C229.719 230.347 237.683 230.157 239.192 233.007C240.768 235.982 243.71 236.092 246.592 236.092Z" fill="#273751"/>
<path d="M151.406 214.254C153.862 216.018 156.985 216.588 159.924 216.914C159.031 216.914 155.59 221.37 154.638 221.37C153.235 221.37 152.426 220.307 151.231 220.09C150.542 219.965 149.188 220.137 148.6 219.843C147.769 219.428 147.828 218.415 146.803 218.187C145.002 217.787 142.573 217.76 141.576 215.967C141.091 215.094 140.032 214.605 139.098 214.605C137.491 214.605 136.029 214.504 134.435 214.229C133.412 214.052 132.413 213.81 131.393 213.63C130.03 213.389 127.783 212.602 126.565 213.43C125.591 214.093 124.666 213.97 123.523 213.97H120.34C119.914 213.97 119.148 214.117 118.742 213.876C117.831 213.335 117.19 212.76 116.135 212.702C115.377 212.66 114.862 212.068 114.044 212.068C112.915 212.068 111.75 211.986 110.626 212.091C107.272 212.403 104.717 214.144 104.624 217.682C104.586 219.134 104.844 220.477 103.332 221.065C101.698 221.7 99.8378 222.156 98.2812 222.897C97.0131 223.501 94.7969 224.716 93.4302 223.896C92.4183 223.288 88.8757 219.931 87.9919 220.783C86.157 222.552 83.9373 223.892 82.1777 225.74C81.0716 226.901 79.5813 227.615 78.3603 228.653C77.3718 229.493 76.4053 230.342 75.4474 231.213C73.3705 233.101 73.9519 235.005 74.1553 237.65C74.2747 239.202 74.5166 240.079 73.0982 240.774C72.3637 241.134 71.601 241.033 70.796 241.033C69.2826 241.033 68.0633 241.141 66.7085 240.328C65.0801 239.351 63.7743 238.859 62.6445 237.215C62.2353 236.62 62.0442 236.511 61.5035 236.203L61.4464 236.17C60.9818 235.904 60.2273 236.187 59.849 235.911C59.3696 235.563 58.8426 235.429 58.322 234.995C57.6871 234.466 57.284 233.677 56.5836 233.21C56.3018 233.022 55.5911 232.787 55.2563 232.787C54.2068 232.787 53.1598 231.837 52.3082 231.307L52.282 231.291C51.1733 230.601 50.7561 230.341 49.5127 230.673C48.851 230.849 47.9574 231.047 47.281 231.096C45.4639 231.226 43.5119 231.487 41.8192 232.165C38.5954 233.454 35.5339 234.169 33.3739 231.049C33.2072 230.808 33.0935 230.199 32.8101 230.086C32.1507 229.822 31.425 229.678 30.7546 229.416C29.4975 228.925 29.0048 228.824 27.595 228.758C26.482 228.707 22.3829 228.085 23.0611 226.186C23.3477 225.384 24.0709 224.246 23.8363 223.367C23.6671 222.732 21.9898 220.625 21.3227 220.524C20.6456 220.423 19.8407 220.007 19.3142 219.561C18.5065 218.878 17.7564 218.55 16.8946 217.976C15.9519 217.347 15.1479 216.816 14.1343 216.296C13.4998 215.97 13.4999 215.71 13.5 215.059L13.5 215.027C13.5 213.65 15.7502 212.512 16.9063 212.255C17.8255 212.051 18.5709 211.323 19.4669 211.057C20.9206 210.627 22.3717 210.02 23.7071 209.237C24.2375 208.926 24.9566 208.663 25.4103 208.25C25.7206 207.968 25.6237 207.207 25.8096 206.829C26.4756 205.476 29.0076 204.45 30.414 204.08C31.579 203.774 32.8245 203.786 33.9965 203.481C35.4654 203.099 36.875 202.312 38.2602 201.696C41.6393 200.194 45.1994 200.887 48.7609 200.486C49.293 200.426 51.5901 200.262 50.1939 199.687C49.6114 199.448 49.4559 198.859 48.9724 198.536C48.0054 197.892 46.3046 197.657 47.5276 196.434C47.8708 196.091 48.2004 195.728 47.6333 195.471C46.625 195.012 44.8596 195.365 43.7337 195.365C42.7589 195.365 42.0919 194.992 41.4081 194.308C40.7242 193.624 43.1805 192.838 43.5575 192.217C44.2211 191.124 40.8976 191.559 40.257 191.559C38.8665 191.559 37.2124 191.324 35.864 191.724C34.4538 192.142 32.8567 191.111 31.4711 190.913C31.0093 190.847 29.9851 190.839 29.6153 190.62C29.0338 190.275 28.3786 189.909 27.6655 189.868C26.391 189.795 24.8204 188.959 23.6014 188.552C22.6441 188.233 21.7199 187.705 20.8764 187.19C19.9044 186.596 19.4871 185.743 18.7387 184.958C18.483 184.69 18.1075 183.981 17.6815 183.948C16.6419 183.868 15.7505 183.314 14.6629 183.314C14.2789 183.314 13.0866 183.838 13.7115 183.302C14.5392 182.593 15.4299 182.13 16.413 181.646C17.4818 181.119 18.9622 180.105 20.2186 180.142C20.6543 180.155 21.0054 180.586 21.3932 180.741C21.6289 180.836 22.9678 180.393 23.1786 180.26C23.7207 179.919 24.1699 179.385 24.7525 179.038C26.0564 178.262 28.2388 178.658 29.768 178.345C31.2877 178.034 33.2288 177.983 34.6425 177.347C35.1262 177.129 35.4674 177.138 35.6526 176.548C36.6713 173.307 43.3548 174.434 46.0594 174.434C47.3721 174.434 50.2817 172.589 48.7609 171.216C47.8957 170.434 46.6712 170.288 45.9419 169.36C45.6843 169.032 45.0768 168.449 44.6734 168.303C43.4854 167.871 37.5094 166.289 37.6024 164.708C37.6431 164.017 39.3145 162.789 39.8224 162.383C40.0272 162.219 40.6363 161.578 40.7268 161.373C41.2631 160.154 42.3623 159.569 43.5 159L50.5773 150.495C52.3761 150.019 54.2716 148.71 56.167 148.101C57.9825 147.518 61.5882 149.604 63.141 150.601C64.9552 151.767 65.839 152.799 67.0804 154.591C69.7659 158.468 75.158 158.867 78.2067 162.252C79.7194 163.932 80.9718 165.012 82.0397 167.146C83.0296 169.125 83.9665 171.559 85.7662 172.998C88.2662 174.997 90.4269 176.454 92.2344 179.116C94.1646 181.959 95.0625 184.672 98.0371 186.564C101.48 188.753 104.284 191.511 107.327 194.171C110.112 196.607 113.533 197.801 116.59 199.89C118.935 201.494 121.582 202.702 124.203 203.774C126.641 204.771 129.167 205.512 131.735 206.088C132.172 206.186 133.328 206.209 133.679 206.647C134.412 207.563 139.114 207.523 140.306 207.844C142.427 208.414 144.873 208.909 146.801 210.025C148.465 210.987 149.779 213.085 151.406 214.254Z" fill="#2E3C57"/>
<path d="M26.4152 247.083H3.68081C1.41634 247.083 0.0529785 248.171 0.0529785 248.171V400H540.681V250.388C539.811 243.993 542.055 243.622 536.972 242.729C532.104 242.729 533.889 236.501 531.168 233.62C528.955 231.277 524.685 231.359 522.098 229.347C518.264 226.365 513.498 222.437 508.715 221.003C505.758 220.116 501.279 217.037 499.323 214.755C496.014 210.894 494.509 210.194 489.407 208.184C485.236 206.541 481.303 204.431 477.234 202.581C475.366 201.733 473.473 201.482 472.397 199.599C469.654 194.798 461.514 192.174 457.12 190.045C450.286 186.735 443.477 183.087 437.166 178.88C435.069 177.481 434.268 176.223 432.692 174.526C430.222 171.866 424.205 170.549 421.002 168.802C416.758 166.487 413.19 163.771 409.111 161.305C405.429 159.078 403.86 156.586 399.679 154.775C393.472 152.085 387.904 148.126 382.426 144.214C377.788 140.901 370.527 142.043 366.625 137.361C363.784 133.952 362.222 128.234 358.16 125.913C356.102 124.737 353.496 122.76 352.678 120.512C350.878 115.562 349.459 116.856 345.463 118.255C341.169 119.758 337.822 120.64 332.967 120.068C330.263 119.75 326.088 118.118 323.253 117.368C320.528 116.647 317.658 114.663 314.788 113.74C312.038 112.856 306.578 116.017 304.227 117.529C301.479 119.295 300.141 120.86 298.261 123.575C294.194 129.45 286.028 130.054 281.411 135.184C279.121 137.73 277.224 139.367 275.607 142.601C274.108 145.599 272.689 149.289 269.964 151.469C266.178 154.498 262.906 156.707 260.169 160.74C257.245 165.048 255.886 169.16 251.381 172.027C246.168 175.345 241.921 179.524 237.313 183.555C233.095 187.246 227.914 189.055 223.286 192.222C219.734 194.652 215.726 196.483 211.757 198.107C208.065 199.618 204.239 200.741 200.35 201.614C199.688 201.763 197.937 201.798 197.407 202.461C196.296 203.849 189.176 203.788 187.37 204.274C184.159 205.139 180.454 205.89 177.535 207.58C175.015 209.039 173.025 212.218 170.561 213.989C166.842 216.662 162.113 217.525 157.662 218.02C152.299 218.616 147.013 218.786 141.619 218.786C140.062 218.786 137.742 218.297 136.379 219.149C134.47 220.341 130.586 221.017 128.317 221.849C126.37 222.563 124.222 222.707 122.19 223.139C113.683 224.947 106.41 226.516 98.4882 229.911C94.3115 231.701 89.6513 233.242 85.1055 233.297C80.2295 233.357 76.1331 232.563 71.8841 234.748C66.5383 237.497 62.4749 238.376 56.4859 238.376C51.9666 238.376 39.9071 238.089 37.6212 242.407C35.2339 246.916 30.7799 247.083 26.4152 247.083Z" fill="#273751"/>
<path d="M319.471 128.036C317.567 128.036 322.962 118.086 323.253 117.368C320.528 116.647 317.658 114.663 314.788 113.74C312.038 112.856 306.578 116.017 304.227 117.529C301.479 119.295 300.141 120.86 298.261 123.575C294.194 129.45 286.028 130.054 281.411 135.184C279.121 137.73 277.224 139.367 275.607 142.601C274.108 145.599 272.689 149.289 269.964 151.469C266.178 154.498 262.906 156.707 260.169 160.74C257.245 165.048 255.886 169.16 251.381 172.027C246.168 175.345 241.921 179.524 237.313 183.555C233.095 187.246 227.914 189.055 223.286 192.222C219.734 194.652 215.726 196.483 211.757 198.107C208.065 199.618 204.239 200.741 200.35 201.614C199.688 201.763 197.937 201.798 197.407 202.461C196.296 203.849 189.176 203.788 187.37 204.274C184.159 205.139 180.454 205.89 177.535 207.58C175.015 209.039 173.025 212.218 170.561 213.989C166.842 216.662 162.113 217.525 157.662 218.02C152.299 218.616 147.013 218.786 141.619 218.786C140.062 218.786 137.742 218.297 136.379 219.149C134.47 220.341 130.586 221.017 128.317 221.849C126.37 222.563 124.222 222.707 122.19 223.139C113.683 224.947 106.41 226.516 98.4882 229.911C94.3115 231.701 89.6513 233.242 85.1055 233.297C80.2295 233.357 76.1331 232.563 71.8841 234.748C66.5383 237.497 62.4749 238.376 56.4859 238.376C51.9666 238.376 39.9071 238.089 37.6212 242.407C35.2339 246.916 30.7799 247.083 26.4152 247.083H0.0529785V252.5L7.99991 255.5L25.4999 250L39.9999 248.171L63.9999 242.407H75.9999L81.9999 244H95.4999C97.0999 244 104.167 240.251 107.5 238.376C107.5 238.376 111.321 229.677 116 229.911C118.752 230.049 119.551 232.504 122.19 233.297C125.859 234.4 127.333 232.629 132.5 231.5C138.274 231.5 143.351 235.51 148.332 232.419C150.658 230.975 152.781 229.684 155.628 230.04C156.632 230.166 157.285 230.975 158.353 230.975C159.62 230.975 160.916 230.742 162.148 230.468C166.855 229.422 173.225 231.23 177.327 228.838C180.712 226.863 182.013 223.76 186.44 223.76C188.506 223.76 190.469 224.323 192.212 225.444C194.555 226.95 194.207 229.051 197.29 229.051H210.01C211.095 229.051 212.576 229.302 213.591 228.838C215.359 228.03 214.706 227.784 215.409 226.379C216.698 223.8 223.516 222.751 226.326 222.319L226.339 222.317C228.773 221.943 231.211 220.951 233.688 220.874C236.741 220.779 238.597 219.383 240.101 216.785C241.757 213.925 245.968 217.776 247.424 219.11C249.798 221.286 251.954 224.706 254.639 226.432C255.87 227.224 260.341 227.127 261.961 227.127C264.051 227.127 265.615 224.883 267.279 223.947C269.833 222.511 271.876 220.237 274.228 218.495C276.414 216.876 277.723 215.161 280.561 215.102C281.24 215.087 287.492 214.386 287.91 215.85C288.869 219.206 295.686 218.782 298.038 218.95C300.508 219.126 303.208 226.133 306.323 223.867C307.526 222.992 309.498 223.302 310.572 222.05C312.033 220.344 314.104 219.268 316.023 218.202C317.411 217.431 318.229 216.064 319.952 216.064C324.399 216.064 328.831 216.159 333.26 215.689C334.801 215.526 336.398 214.812 337.857 214.3C339.491 213.727 342.234 213.365 343.522 212.002C344.798 210.651 346.348 207.902 347.103 206.203C348.04 204.095 350.391 203.714 352.288 202.969C353.643 202.437 354.319 201.079 354.319 199.735C354.319 198.299 355.969 197.966 356.216 196.609C356.316 196.056 353.327 194.598 352.635 194.444C350.803 194.037 348.979 193.097 347.103 192.6C345.029 192.051 342.824 191.743 340.957 190.676C336.828 188.317 332.577 185.278 327.595 185.278C323.904 185.278 311.764 186.662 311.988 180.842C312.046 179.337 316.311 177.714 317.467 176.913C319.29 175.651 322.349 174.857 324.495 173.84C327.027 172.641 327.652 171.95 329.376 170.043L329.519 169.885C331.409 167.796 332.613 165.075 335.772 165.075C337.437 165.075 339.238 165.282 340.85 164.834C343.078 164.215 348.318 165.592 346.996 161.333C346.494 159.715 342.811 158.923 341.438 158.447C339.867 157.904 338.164 158.195 336.734 157.378C335.094 156.441 333.209 155.077 331.229 154.973C327.515 154.778 323.7 151.831 320.139 150.644C317.703 149.832 320.79 149.182 321.502 147.758C322.304 146.153 321.981 146.325 323.907 145.727C326.038 145.065 328.703 144.208 328.316 141.504C328.058 139.693 325.768 139.58 329.038 139.58C330.773 139.58 331.936 138.264 333.153 137.175C333.673 136.71 339.812 134.308 336.975 133.835C334.245 133.38 330.371 133.83 328.236 131.777C325.705 129.343 323.007 128.036 319.471 128.036Z" fill="#2E3C57"/>
<path d="M274.285 269.116C279.089 271.959 281.324 274.672 288.727 276.564V325L-35 327C-35 227.727 -32.7727 353.131 -32.7727 291.5C-22.572 289.725 64.4068 260.56 73.4097 257.978C74.6965 258.009 75.7804 258.552 77.1074 258.552C78.187 258.552 79.1609 258.152 80.1037 257.681C80.4145 257.525 80.8356 257.331 81.0175 257.022C81.1893 256.73 81.6994 256.815 82.0163 256.682C82.3692 256.533 82.8228 256.693 83.1957 256.618C84.3463 256.388 85.5414 256.308 86.6914 256.044C88.6339 255.598 89.7495 254.178 91.4941 253.282C92.0221 253.011 92.7597 252.76 93.1835 252.336C93.4619 252.058 93.6454 251.523 94.1823 251.688C94.9464 251.923 95.9077 253.403 96.5093 254.004C97.0234 254.518 98.1616 255.568 98.9106 255.683C100.578 255.94 102.006 256.066 103.703 256.066C104.124 256.066 104.484 256.484 104.776 256.746C105.509 257.402 106.218 257.497 107.113 257.681C108.492 257.963 109.992 258.358 111.364 258.541C112.561 258.701 113.461 259.126 114.657 259.126C115.737 259.126 117.814 259.29 118.451 258.159C118.821 257.5 118.869 256.762 119.131 256.066C119.659 254.657 120.412 252.865 121.946 252.283C123.077 251.854 124.111 251.538 124.943 250.54C125.827 249.48 126.839 249.516 128.134 249.562L128.152 249.563C129.345 249.605 130.536 251.149 131.637 251.667C132.814 252.221 133.756 253.112 134.941 253.685C137.764 255.051 140.853 254.727 143.898 254.727C144.769 254.727 145.798 254.87 146.619 254.535C147.572 254.146 148.778 252.464 149.296 251.624C150.287 250.019 150.937 249.122 152.579 248.128C153.702 247.449 154.908 246.607 156.181 246.269C156.989 246.055 157.545 246.688 158.221 247.108C159.496 247.902 160.775 248.436 162.174 248.947C163.146 249.301 163.743 250.062 164.352 250.891C165.202 252.047 166.363 252.232 167.412 253.005C169.513 254.553 171.558 256.831 174.372 256.831C175.545 256.831 177.23 257.108 178.176 256.267C178.33 256.131 178.332 255.815 178.452 255.726C178.68 255.554 179.338 255.644 179.621 255.587C180.172 255.477 180.435 255.401 180.832 255.853C181.523 256.64 182.068 257.007 183.106 257.171C184.522 257.393 185.836 257.999 186.952 258.743C188.242 259.603 189.549 259.871 190.99 259.359C192.937 258.669 195.026 258.86 197.015 259.413C198.371 259.789 200.111 259.508 201.552 259.508C208.236 263.385 231.784 248.867 239.372 252.252C243.137 253.932 246.254 255.012 248.912 257.146C251.376 259.125 253.708 261.559 258.187 262.998C264.409 264.997 269.787 266.454 274.285 269.116Z" fill="#2D3D5A"/>
<path d="M349.5 260C353.882 261.127 355.393 262.877 360 262.957V371.957H0V288.957C10.6042 288.957 21.8018 289.457 32.2787 287.929C36.8113 287.268 42.0784 287.521 46.6394 287.776C53.3488 288.152 59.5969 288.109 66.287 287.217C70.6677 286.633 74.7187 285.353 79.0718 284.828C81.4568 284.541 83.6068 283.491 85.9853 283.201C88.8756 282.85 91.608 282.861 94.4746 282.185C98.2113 281.302 102.315 281.577 106.141 281.244C112.07 280.729 117.841 279.716 123.755 278.982C128.937 278.339 135.308 277.018 140.531 278.118C144.47 278.947 151.785 282.621 155.527 279.414C157.795 277.47 161.268 275.488 164.169 274.763C167.725 273.874 171.825 273.204 175.073 271.484C176.173 270.901 177.122 270.202 178.326 269.832C179.355 269.515 180.166 268.438 181.198 268.002C183.29 267.119 185.113 266.07 186.739 264.443C187.698 263.485 187.414 260.752 188.671 260.682C192.069 260.493 198.081 257.718 199.295 254.277C199.676 253.198 201.483 251.092 202.422 250.388C204.09 249.136 207.005 249.41 208.979 249.015C213.761 248.059 218.254 246.658 222.755 244.872C225.36 243.838 228.09 241.879 230.965 241.924C236.303 242.007 251.511 242.759 256.775 243.55C259.493 243.959 261.906 243.461 264.578 242.813C267.881 242.013 272.721 241.025 275.228 238.518C276.716 237.03 278.635 235.56 279.803 233.79C280.877 232.162 282.639 230.991 283.564 229.317L283.605 229.243C285.021 226.681 287.713 221.808 291.545 223.268C293.708 224.091 295.824 225.273 297.925 226.394C300.171 227.592 302.483 229.378 304 231.401C306.231 234.376 308.287 233.668 311.447 235.341C313.046 236.187 315.032 236.424 316.429 237.577C317.252 238.258 317.752 239.036 318.589 239.687C320.618 241.265 322.113 242.363 323.927 244.11C325.332 245.462 327.396 246.6 329.061 247.617C331.077 248.849 332.521 250.73 334.526 251.964C337.299 253.67 340.638 256.401 343.752 257.225C348.312 258.432 344.926 258.824 349.5 260Z" fill="#26395A"/>
<path d="M243.059 237.746L243.5 237L243.932 237.746H243.774L244.276 238.646H243.985L244.497 239.677H244.215L244.735 240.915H244.497L245 242.262H243.712V243H243.288V242.262H242L242.494 240.915H242.256L242.803 239.677H242.494L242.988 238.646H242.715L243.218 237.746H243.059Z" fill="#26395A"/>
<path d="M239.059 239.746L239.5 239L239.932 239.746H239.774L240.276 240.646H239.985L240.497 241.677H240.215L240.735 242.915H240.497L241 244.262H239.712V245H239.288V244.262H238L238.494 242.915H238.256L238.803 241.677H238.494L238.988 240.646H238.715L239.218 239.746H239.059Z" fill="#26395A"/>
<path d="M235.059 239.746L235.5 239L235.932 239.746H235.774L236.276 240.646H235.985L236.497 241.677H236.215L236.735 242.915H236.497L237 244.262H235.712V245H235.288V244.262H234L234.494 242.915H234.256L234.803 241.677H234.494L234.988 240.646H234.715L235.218 239.746H235.059Z" fill="#26395A"/>
<path d="M196.765 248.244L197.5 247L198.221 248.244H197.956L198.794 249.744H198.309L199.162 251.462H198.691L199.559 253.526H199.162L200 255.769H197.853V257H197.147V255.769H195L195.824 253.526H195.426L196.338 251.462H195.824L196.647 249.744H196.191L197.029 248.244H196.765Z" fill="#26395A"/>
<path d="M227.059 239.746L227.5 239L227.932 239.746H227.774L228.276 240.646H227.985L228.497 241.677H228.215L228.735 242.915H228.497L229 244.262H227.712V245H227.288V244.262H226L226.494 242.915H226.256L226.803 241.677H226.494L226.988 240.646H226.715L227.218 239.746H227.059Z" fill="#26395A"/>
<path d="M214.059 243.746L214.5 243L214.932 243.746H214.774L215.276 244.646H214.985L215.497 245.677H215.215L215.735 246.915H215.497L216 248.262H214.712V249H214.288V248.262H213L213.494 246.915H213.256L213.803 245.677H213.494L213.988 244.646H213.715L214.218 243.746H214.059Z" fill="#26395A"/>
<path d="M212.059 244.746L212.5 244L212.932 244.746H212.774L213.276 245.646H212.985L213.497 246.677H213.215L213.735 247.915H213.497L214 249.262H212.712V250H212.288V249.262H211L211.494 247.915H211.256L211.803 246.677H211.494L211.988 245.646H211.715L212.218 244.746H212.059Z" fill="#26395A"/>
<path d="M206.059 244.746L206.5 244L206.932 244.746H206.774L207.276 245.646H206.985L207.497 246.677H207.215L207.735 247.915H207.497L208 249.262H206.712V250H206.288V249.262H205L205.494 247.915H205.256L205.803 246.677H205.494L205.988 245.646H205.715L206.218 244.746H206.059Z" fill="#26395A"/>
<path d="M209.059 246.746L209.5 246L209.932 246.746H209.774L210.276 247.646H209.985L210.497 248.677H210.215L210.735 249.915H210.497L211 251.262H209.712V252H209.288V251.262H208L208.494 249.915H208.256L208.803 248.677H208.494L208.988 247.646H208.715L209.218 246.746H209.059Z" fill="#26395A"/>
<path d="M207.059 243.746L207.5 243L207.932 243.746H207.774L208.276 244.646H207.985L208.497 245.677H208.215L208.735 246.915H208.497L209 248.262H207.712V249H207.288V248.262H206L206.494 246.915H206.256L206.803 245.677H206.494L206.988 244.646H206.715L207.218 243.746H207.059Z" fill="#26395A"/>
<path d="M201.059 247.746L201.5 247L201.932 247.746H201.774L202.276 248.646H201.985L202.497 249.677H202.215L202.735 250.915H202.497L203 252.262H201.712V253H201.288V252.262H200L200.494 250.915H200.256L200.803 249.677H200.494L200.988 248.646H200.715L201.218 247.746H201.059Z" fill="#26395A"/>
<path d="M193.059 254.746L193.5 254L193.932 254.746H193.774L194.276 255.646H193.985L194.497 256.677H194.215L194.735 257.915H194.497L195 259.262H193.712V260H193.288V259.262H192L192.494 257.915H192.256L192.803 256.677H192.494L192.988 255.646H192.715L193.218 254.746H193.059Z" fill="#26395A"/>
<path d="M188.059 255.746L188.5 255L188.932 255.746H188.774L189.276 256.646H188.985L189.497 257.677H189.215L189.735 258.915H189.497L190 260.262H188.712V261H188.288V260.262H187L187.494 258.915H187.256L187.803 257.677H187.494L187.988 256.646H187.715L188.218 255.746H188.059Z" fill="#26395A"/>
<path d="M184.059 261.746L184.5 261L184.932 261.746H184.774L185.276 262.646H184.985L185.497 263.677H185.215L185.735 264.915H185.497L186 266.262H184.712V267H184.288V266.262H183L183.494 264.915H183.256L183.803 263.677H183.494L183.988 262.646H183.715L184.218 261.746H184.059Z" fill="#26395A"/>
<path d="M186.059 261.746L186.5 261L186.932 261.746H186.774L187.276 262.646H186.985L187.497 263.677H187.215L187.735 264.915H187.497L188 266.262H186.712V267H186.288V266.262H185L185.494 264.915H185.256L185.803 263.677H185.494L185.988 262.646H185.715L186.218 261.746H186.059Z" fill="#26395A"/>
<path d="M177.059 266.746L177.5 266L177.932 266.746H177.774L178.276 267.646H177.985L178.497 268.677H178.215L178.735 269.915H178.497L179 271.262H177.712V272H177.288V271.262H176L176.494 269.915H176.256L176.803 268.677H176.494L176.988 267.646H176.715L177.218 266.746H177.059Z" fill="#26395A"/>
<path d="M175.059 270.746L175.5 270L175.932 270.746H175.774L176.276 271.646H175.985L176.497 272.677H176.215L176.735 273.915H176.497L177 275.262H175.712V276H175.288V275.262H174L174.494 273.915H174.256L174.803 272.677H174.494L174.988 271.646H174.715L175.218 270.746H175.059Z" fill="#26395A"/>
<path d="M167.059 269.746L167.5 269L167.932 269.746H167.774L168.276 270.646H167.985L168.497 271.677H168.215L168.735 272.915H168.497L169 274.262H167.712V275H167.288V274.262H166L166.494 272.915H166.256L166.803 271.677H166.494L166.988 270.646H166.715L167.218 269.746H167.059Z" fill="#26395A"/>
<path d="M165.059 270.746L165.5 270L165.932 270.746H165.774L166.276 271.646H165.985L166.497 272.677H166.215L166.735 273.915H166.497L167 275.262H165.712V276H165.288V275.262H164L164.494 273.915H164.256L164.803 272.677H164.494L164.988 271.646H164.715L165.218 270.746H165.059Z" fill="#26395A"/>
<path d="M158.059 275.746L158.5 275L158.932 275.746H158.774L159.276 276.646H158.985L159.497 277.677H159.215L159.735 278.915H159.497L160 280.262H158.712V281H158.288V280.262H157L157.494 278.915H157.256L157.803 277.677H157.494L157.988 276.646H157.715L158.218 275.746H158.059Z" fill="#26395A"/>
<path d="M163.059 269.746L163.5 269L163.932 269.746H163.774L164.276 270.646H163.985L164.497 271.677H164.215L164.735 272.915H164.497L165 274.262H163.712V275H163.288V274.262H162L162.494 272.915H162.256L162.803 271.677H162.494L162.988 270.646H162.715L163.218 269.746H163.059Z" fill="#26395A"/>
<path d="M161.059 270.746L161.5 270L161.932 270.746H161.774L162.276 271.646H161.985L162.497 272.677H162.215L162.735 273.915H162.497L163 275.262H161.712V276H161.288V275.262H160L160.494 273.915H160.256L160.803 272.677H160.494L160.988 271.646H160.715L161.218 270.746H161.059Z" fill="#26395A"/>
<path d="M182.059 263.746L182.5 263L182.932 263.746H182.774L183.276 264.646H182.985L183.497 265.677H183.215L183.735 266.915H183.497L184 268.262H182.712V269H182.288V268.262H181L181.494 266.915H181.256L181.803 265.677H181.494L181.988 264.646H181.715L182.218 263.746H182.059Z" fill="#26395A"/>
<path d="M172.059 267.746L172.5 267L172.932 267.746H172.774L173.276 268.646H172.985L173.497 269.677H173.215L173.735 270.915H173.497L174 272.262H172.712V273H172.288V272.262H171L171.494 270.915H171.256L171.803 269.677H171.494L171.988 268.646H171.715L172.218 267.746H172.059Z" fill="#26395A"/>
<path d="M210.059 243.746L210.5 243L210.932 243.746H210.774L211.276 244.646H210.985L211.497 245.677H211.215L211.735 246.915H211.497L212 248.262H210.712V249H210.288V248.262H209L209.494 246.915H209.256L209.803 245.677H209.494L209.988 244.646H209.715L210.218 243.746H210.059Z" fill="#26395A"/>
<path d="M221.059 243.746L221.5 243L221.932 243.746H221.774L222.276 244.646H221.985L222.497 245.677H222.215L222.735 246.915H222.497L223 248.262H221.712V249H221.288V248.262H220L220.494 246.915H220.256L220.803 245.677H220.494L220.988 244.646H220.715L221.218 243.746H221.059Z" fill="#26395A"/>
<path d="M190.059 257.746L190.5 257L190.932 257.746H190.774L191.276 258.646H190.985L191.497 259.677H191.215L191.735 260.915H191.497L192 262.262H190.712V263H190.288V262.262H189L189.494 260.915H189.256L189.803 259.677H189.494L189.988 258.646H189.715L190.218 257.746H190.059Z" fill="#26395A"/>
<path d="M217.059 241.746L217.5 241L217.932 241.746H217.774L218.276 242.646H217.985L218.497 243.677H218.215L218.735 244.915H218.497L219 246.262H217.712V247H217.288V246.262H216L216.494 244.915H216.256L216.803 243.677H216.494L216.988 242.646H216.715L217.218 241.746H217.059Z" fill="#26395A"/>
<path d="M222.059 239.746L222.5 239L222.932 239.746H222.774L223.276 240.646H222.985L223.497 241.677H223.215L223.735 242.915H223.497L224 244.262H222.712V245.346H222.288V244.262H221L221.494 242.915H221.256L221.803 241.677H221.494L221.988 240.646H221.715L222.218 239.746H222.059Z" fill="#26395A"/>
<path d="M231.412 234.995L232 234L232.576 234.995H232.365L233.035 236.195H232.647L233.329 237.569H232.953L233.647 239.221H233.329L234 241.015H232.282V242H231.718V241.015H230L230.659 239.221H230.341L231.071 237.569H230.659L231.318 236.195H230.953L231.624 234.995H231.412Z" fill="#26395A"/>
<path d="M228.412 238.995L229 238L229.576 238.995H229.365L230.035 240.195H229.647L230.329 241.569H229.953L230.647 243.221H230.329L231 245.015H229.282V246H228.718V245.015H227L227.659 243.221H227.341L228.071 241.569H227.659L228.318 240.195H227.953L228.624 238.995H228.412Z" fill="#26395A"/>
<path d="M224.412 236.995L225 236L225.576 236.995H225.365L226.035 238.195H225.647L226.329 239.569H225.953L226.647 241.221H226.329L227 243.015H225.282V244H224.718V243.015H223L223.659 241.221H223.341L224.071 239.569H223.659L224.318 238.195H223.953L224.624 236.995H224.412Z" fill="#26395A"/>
<path d="M203.412 242.995L204 242L204.576 242.995H204.365L205.035 244.195H204.647L205.329 245.569H204.953L205.647 247.221H205.329L206 249.015H204.282V250H203.718V249.015H202L202.659 247.221H202.341L203.071 245.569H202.659L203.318 244.195H202.953L203.624 242.995H203.412Z" fill="#26395A"/>
<path d="M245.059 238.746L245.5 238L245.932 238.746H245.774L246.276 239.646H245.985L246.497 240.677H246.215L246.735 241.915H246.497L247 243.262H245.712V244H245.288V243.262H244L244.494 241.915H244.256L244.803 240.677H244.494L244.988 239.646H244.715L245.218 238.746H245.059Z" fill="#26395A"/>
<path d="M257.059 238.746L257.5 238L257.932 238.746H257.774L258.276 239.646H257.985L258.497 240.677H258.215L258.735 241.915H258.497L259 243.262H257.712V244H257.288V243.262H256L256.494 241.915H256.256L256.803 240.677H256.494L256.988 239.646H256.715L257.218 238.746H257.059Z" fill="#26395A"/>
<path d="M260.059 240.746L260.5 240L260.932 240.746H260.774L261.276 241.646H260.985L261.497 242.677H261.215L261.735 243.915H261.497L262 245.262H260.712V246H260.288V245.262H259L259.494 243.915H259.256L259.803 242.677H259.494L259.988 241.646H259.715L260.218 240.746H260.059Z" fill="#26395A"/>
<path d="M264.059 237.746L264.5 237L264.932 237.746H264.774L265.276 238.646H264.985L265.497 239.677H265.215L265.735 240.915H265.497L266 242.262H264.712V243H264.288V242.262H263L263.494 240.915H263.256L263.803 239.677H263.494L263.988 238.646H263.715L264.218 237.746H264.059Z" fill="#26395A"/>
<path d="M272.059 235.746L272.5 235L272.932 235.746H272.774L273.276 236.646H272.985L273.497 237.677H273.215L273.735 238.915H273.497L274 240.262H272.712V241H272.288V240.262H271L271.494 238.915H271.256L271.803 237.677H271.494L271.988 236.646H271.715L272.218 235.746H272.059Z" fill="#26395A"/>
<path d="M276.059 232.746L276.5 232L276.932 232.746H276.774L277.276 233.646H276.985L277.497 234.677H277.215L277.735 235.915H277.497L278 237.262H276.712V238H276.288V237.262H275L275.494 235.915H275.256L275.803 234.677H275.494L275.988 233.646H275.715L276.218 232.746H276.059Z" fill="#26395A"/>
<path d="M290.059 217.746L290.5 217L290.932 217.746H290.774L291.276 218.646H290.985L291.497 219.677H291.215L291.735 220.915H291.497L292 222.262H290.712V223H290.288V222.262H289L289.494 220.915H289.256L289.803 219.677H289.494L289.988 218.646H289.715L290.218 217.746H290.059Z" fill="#26395A"/>
<path d="M288.059 219.746L288.5 219L288.932 219.746H288.774L289.276 220.646H288.985L289.497 221.677H289.215L289.735 222.915H289.497L290 224.262H288.712V225H288.288V224.262H287L287.494 222.915H287.256L287.803 221.677H287.494L287.988 220.646H287.715L288.218 219.746H288.059Z" fill="#26395A"/>
<path d="M285.059 223.746L285.5 223L285.932 223.746H285.774L286.276 224.646H285.985L286.497 225.677H286.215L286.735 226.915H286.497L287 228.262H285.712V229H285.288V228.262H284L284.494 226.915H284.256L284.803 225.677H284.494L284.988 224.646H284.715L285.218 223.746H285.059Z" fill="#26395A"/>
<path d="M281.059 226.746L281.5 226L281.932 226.746H281.774L282.276 227.646H281.985L282.497 228.677H282.215L282.735 229.915H282.497L283 231.262H281.712V232H281.288V231.262H280L280.494 229.915H280.256L280.803 228.677H280.494L280.988 227.646H280.715L281.218 226.746H281.059Z" fill="#26395A"/>
<path d="M279.059 231.746L279.5 231L279.932 231.746H279.774L280.276 232.646H279.985L280.497 233.677H280.215L280.735 234.915H280.497L281 236.262H279.712V237H279.288V236.262H278L278.494 234.915H278.256L278.803 233.677H278.494L278.988 232.646H278.715L279.218 231.746H279.059Z" fill="#26395A"/>
<path d="M283.059 225.746L283.5 225L283.932 225.746H283.774L284.276 226.646H283.985L284.497 227.677H284.215L284.735 228.915H284.497L285 230.262H283.712V231H283.288V230.262H282L282.494 228.915H282.256L282.803 227.677H282.494L282.988 226.646H282.715L283.218 225.746H283.059Z" fill="#26395A"/>
<path d="M292.059 221.746L292.5 221L292.932 221.746H292.774L293.276 222.646H292.985L293.497 223.677H293.215L293.735 224.915H293.497L294 226.262H292.712V227H292.288V226.262H291L291.494 224.915H291.256L291.803 223.677H291.494L291.988 222.646H291.715L292.218 221.746H292.059Z" fill="#26395A"/>
<path d="M294.059 219.746L294.5 219L294.932 219.746H294.774L295.276 220.646H294.985L295.497 221.677H295.215L295.735 222.915H295.497L296 224.262H294.712V225H294.288V224.262H293L293.494 222.915H293.256L293.803 221.677H293.494L293.988 220.646H293.715L294.218 219.746H294.059Z" fill="#26395A"/>
<path d="M296.059 223.746L296.5 223L296.932 223.746H296.774L297.276 224.646H296.985L297.497 225.677H297.215L297.735 226.915H297.497L298 228.262H296.712V229H296.288V228.262H295L295.494 226.915H295.256L295.803 225.677H295.494L295.988 224.646H295.715L296.218 223.746H296.059Z" fill="#26395A"/>
<path d="M303.059 226.746L303.5 226L303.932 226.746H303.774L304.276 227.646H303.985L304.497 228.677H304.215L304.735 229.915H304.497L305 231.262H303.712V232H303.288V231.262H302L302.494 229.915H302.256L302.803 228.677H302.494L302.988 227.646H302.715L303.218 226.746H303.059Z" fill="#26395A"/>
<path d="M309.059 230.746L309.5 230L309.932 230.746H309.774L310.276 231.646H309.985L310.497 232.677H310.215L310.735 233.915H310.497L311 235.262H309.712V236H309.288V235.262H308L308.494 233.915H308.256L308.803 232.677H308.494L308.988 231.646H308.715L309.218 230.746H309.059Z" fill="#26395A"/>
<path d="M315.059 231.746L315.5 231L315.932 231.746H315.774L316.276 232.646H315.985L316.497 233.677H316.215L316.735 234.915H316.497L317 236.262H315.712V237H315.288V236.262H314L314.494 234.915H314.256L314.803 233.677H314.494L314.988 232.646H314.715L315.218 231.746H315.059Z" fill="#26395A"/>
<path d="M317.059 235.746L317.5 235L317.932 235.746H317.774L318.276 236.646H317.985L318.497 237.677H318.215L318.735 238.915H318.497L319 240.262H317.712V241H317.288V240.262H316L316.494 238.915H316.256L316.803 237.677H316.494L316.988 236.646H316.715L317.218 235.746H317.059Z" fill="#26395A"/>
<path d="M319.059 235.746L319.5 235L319.932 235.746H319.774L320.276 236.646H319.985L320.497 237.677H320.215L320.735 238.915H320.497L321 240.262H319.712V241H319.288V240.262H318L318.494 238.915H318.256L318.803 237.677H318.494L318.988 236.646H318.715L319.218 235.746H319.059Z" fill="#26395A"/>
<path d="M321.059 239.746L321.5 239L321.932 239.746H321.774L322.276 240.646H321.985L322.497 241.677H322.215L322.735 242.915H322.497L323 244.262H321.712V245H321.288V244.262H320L320.494 242.915H320.256L320.803 241.677H320.494L320.988 240.646H320.715L321.218 239.746H321.059Z" fill="#26395A"/>
<path d="M324.059 239.746L324.5 239L324.932 239.746H324.774L325.276 240.646H324.985L325.497 241.677H325.215L325.735 242.915H325.497L326 244.262H324.712V245H324.288V244.262H323L323.494 242.915H323.256L323.803 241.677H323.494L323.988 240.646H323.715L324.218 239.746H324.059Z" fill="#26395A"/>
<path d="M327.059 242.746L327.5 242L327.932 242.746H327.774L328.276 243.646H327.985L328.497 244.677H328.215L328.735 245.915H328.497L329 247.262H327.712V248H327.288V247.262H326L326.494 245.915H326.256L326.803 244.677H326.494L326.988 243.646H326.715L327.218 242.746H327.059Z" fill="#26395A"/>
<path d="M326.059 243.746L326.5 243L326.932 243.746H326.774L327.276 244.646H326.985L327.497 245.677H327.215L327.735 246.915H327.497L328 248.262H326.712V249H326.288V248.262H325L325.494 246.915H325.256L325.803 245.677H325.494L325.988 244.646H325.715L326.218 243.746H326.059Z" fill="#26395A"/>
<path d="M329.059 241.746L329.5 241L329.932 241.746H329.774L330.276 242.646H329.985L330.497 243.677H330.215L330.735 244.915H330.497L331 246.262H329.712V247H329.288V246.262H328L328.494 244.915H328.256L328.803 243.677H328.494L328.988 242.646H328.715L329.218 241.746H329.059Z" fill="#26395A"/>
<path d="M322.059 237.746L322.5 237L322.932 237.746H322.774L323.276 238.646H322.985L323.497 239.677H323.215L323.735 240.915H323.497L324 242.262H322.712V243H322.288V242.262H321L321.494 240.915H321.256L321.803 239.677H321.494L321.988 238.646H321.715L322.218 237.746H322.059Z" fill="#26395A"/>
<path d="M317.059 231.746L317.5 231L317.932 231.746H317.774L318.276 232.646H317.985L318.497 233.677H318.215L318.735 234.915H318.497L319 236.262H317.712V237H317.288V236.262H316L316.494 234.915H316.256L316.803 233.677H316.494L316.988 232.646H316.715L317.218 231.746H317.059Z" fill="#26395A"/>
<path d="M247.059 239.746L247.5 239L247.932 239.746H247.774L248.276 240.646H247.985L248.497 241.677H248.215L248.735 242.915H248.497L249 244.262H247.712V245H247.288V244.262H246L246.494 242.915H246.256L246.803 241.677H246.494L246.988 240.646H246.715L247.218 239.746H247.059Z" fill="#26395A"/>
<path d="M252.059 238.746L252.5 238L252.932 238.746H252.774L253.276 239.646H252.985L253.497 240.677H253.215L253.735 241.915H253.497L254 243.262H252.712V244H252.288V243.262H251L251.494 241.915H251.256L251.803 240.677H251.494L251.988 239.646H251.715L252.218 238.746H252.059Z" fill="#26395A"/>
<path d="M249.059 240.746L249.5 240L249.932 240.746H249.774L250.276 241.646H249.985L250.497 242.677H250.215L250.735 243.915H250.497L251 245.262H249.712V246H249.288V245.262H248L248.494 243.915H248.256L248.803 242.677H248.494L248.988 241.646H248.715L249.218 240.746H249.059Z" fill="#26395A"/>
<path d="M254.059 238.746L254.5 238L254.932 238.746H254.774L255.276 239.646H254.985L255.497 240.677H255.215L255.735 241.915H255.497L256 243.262H254.712V244H254.288V243.262H253L253.494 241.915H253.256L253.803 240.677H253.494L253.988 239.646H253.715L254.218 238.746H254.059Z" fill="#26395A"/>
<path d="M10.5 292C6.11803 293.127 4.60664 294.877 0 294.957V403.957H360V320.957C349.396 320.957 338.198 321.457 327.721 319.929C323.189 319.268 317.922 319.521 313.361 319.776C306.651 320.152 300.403 320.109 293.713 319.217C289.332 318.633 285.281 317.353 280.928 316.828C278.543 316.541 276.393 315.491 274.015 315.201C271.124 314.85 268.392 314.861 265.525 314.185C261.789 313.302 257.685 313.577 253.859 313.244C247.93 312.729 242.159 311.716 236.245 310.982C231.063 310.339 224.692 309.018 219.469 310.118C215.53 310.947 208.215 314.621 204.473 311.414C202.205 309.47 198.732 307.488 195.831 306.763C192.275 305.874 188.175 305.204 184.927 303.484C183.827 302.901 182.878 302.202 181.674 301.832C180.645 301.515 179.834 300.438 178.802 300.002C176.71 299.119 174.887 298.07 173.261 296.443C172.302 295.485 172.586 292.752 171.329 292.682C167.931 292.493 161.919 289.718 160.705 286.277C160.324 285.198 158.517 283.092 157.578 282.388C155.91 281.136 152.995 281.41 151.021 281.015C146.239 280.059 141.746 278.658 137.245 276.872C134.64 275.838 131.91 273.879 129.035 273.924C123.697 274.007 108.489 274.759 103.225 275.55C100.507 275.959 98.0939 275.461 95.4223 274.813C92.1194 274.013 87.2791 273.025 84.7725 270.518C83.2844 269.03 81.3646 267.56 80.1974 265.79C79.1234 264.162 77.3605 262.991 76.4356 261.317L76.3949 261.243C74.9792 258.681 72.287 253.808 68.4546 255.268C66.2921 256.091 64.1758 257.273 62.0749 258.394C59.8292 259.592 57.5173 261.378 56.0002 263.401C53.7688 266.376 51.7133 265.668 48.5529 267.341C46.9538 268.187 44.9676 268.424 43.5711 269.577C42.7476 270.258 42.248 271.036 41.4107 271.687C39.3824 273.265 37.8868 274.363 36.0731 276.11C34.6683 277.462 32.6039 278.6 30.9388 279.617C28.9225 280.849 27.4786 282.73 25.4741 283.964C22.7013 285.67 19.3619 288.401 16.2476 289.225C11.6879 290.432 15.0739 290.824 10.5 292Z" fill="#223351"/>
<path d="M116.941 269.746L116.5 269L116.068 269.746H116.226L115.724 270.646H116.015L115.503 271.677H115.785L115.265 272.915H115.503L115 274.262H116.288V275H116.712V274.262H118L117.506 272.915H117.744L117.197 271.677H117.506L117.012 270.646H117.285L116.782 269.746H116.941Z" fill="#223351"/>
<path d="M120.941 271.746L120.5 271L120.068 271.746H120.226L119.724 272.646H120.015L119.503 273.677H119.785L119.265 274.915H119.503L119 276.262H120.288V277H120.712V276.262H122L121.506 274.915H121.744L121.197 273.677H121.506L121.012 272.646H121.285L120.782 271.746H120.941Z" fill="#223351"/>
<path d="M124.941 271.746L124.5 271L124.068 271.746H124.226L123.724 272.646H124.015L123.503 273.677H123.785L123.265 274.915H123.503L123 276.262H124.288V277H124.712V276.262H126L125.506 274.915H125.744L125.197 273.677H125.506L125.012 272.646H125.285L124.782 271.746H124.941Z" fill="#223351"/>
<path d="M163.235 280.244L162.5 279L161.779 280.244H162.044L161.206 281.744H161.691L160.838 283.462H161.309L160.441 285.526H160.838L160 287.769H162.147V289H162.853V287.769H165L164.176 285.526H164.574L163.662 283.462H164.176L163.353 281.744H163.809L162.971 280.244H163.235Z" fill="#223351"/>
<path d="M132.941 271.746L132.5 271L132.068 271.746H132.226L131.724 272.646H132.015L131.503 273.677H131.785L131.265 274.915H131.503L131 276.262H132.288V277H132.712V276.262H134L133.506 274.915H133.744L133.197 273.677H133.506L133.012 272.646H133.285L132.782 271.746H132.941Z" fill="#223351"/>
<path d="M145.941 275.746L145.5 275L145.068 275.746H145.226L144.724 276.646H145.015L144.503 277.677H144.785L144.265 278.915H144.503L144 280.262H145.288V281H145.712V280.262H147L146.506 278.915H146.744L146.197 277.677H146.506L146.012 276.646H146.285L145.782 275.746H145.941Z" fill="#223351"/>
<path d="M147.941 276.746L147.5 276L147.068 276.746H147.226L146.724 277.646H147.015L146.503 278.677H146.785L146.265 279.915H146.503L146 281.262H147.288V282H147.712V281.262H149L148.506 279.915H148.744L148.197 278.677H148.506L148.012 277.646H148.285L147.782 276.746H147.941Z" fill="#223351"/>
<path d="M153.941 276.746L153.5 276L153.068 276.746H153.226L152.724 277.646H153.015L152.503 278.677H152.785L152.265 279.915H152.503L152 281.262H153.288V282H153.712V281.262H155L154.506 279.915H154.744L154.197 278.677H154.506L154.012 277.646H154.285L153.782 276.746H153.941Z" fill="#223351"/>
<path d="M150.941 278.746L150.5 278L150.068 278.746H150.226L149.724 279.646H150.015L149.503 280.677H149.785L149.265 281.915H149.503L149 283.262H150.288V284H150.712V283.262H152L151.506 281.915H151.744L151.197 280.677H151.506L151.012 279.646H151.285L150.782 278.746H150.941Z" fill="#223351"/>
<path d="M152.941 275.746L152.5 275L152.068 275.746H152.226L151.724 276.646H152.015L151.503 277.677H151.785L151.265 278.915H151.503L151 280.262H152.288V281H152.712V280.262H154L153.506 278.915H153.744L153.197 277.677H153.506L153.012 276.646H153.285L152.782 275.746H152.941Z" fill="#223351"/>
<path d="M158.941 279.746L158.5 279L158.068 279.746H158.226L157.724 280.646H158.015L157.503 281.677H157.785L157.265 282.915H157.503L157 284.262H158.288V285H158.712V284.262H160L159.506 282.915H159.744L159.197 281.677H159.506L159.012 280.646H159.285L158.782 279.746H158.941Z" fill="#223351"/>
<path d="M166.941 286.746L166.5 286L166.068 286.746H166.226L165.724 287.646H166.015L165.503 288.677H165.785L165.265 289.915H165.503L165 291.262H166.288V292H166.712V291.262H168L167.506 289.915H167.744L167.197 288.677H167.506L167.012 287.646H167.285L166.782 286.746H166.941Z" fill="#223351"/>
<path d="M171.941 287.746L171.5 287L171.068 287.746H171.226L170.724 288.646H171.015L170.503 289.677H170.785L170.265 290.915H170.503L170 292.262H171.288V293H171.712V292.262H173L172.506 290.915H172.744L172.197 289.677H172.506L172.012 288.646H172.285L171.782 287.746H171.941Z" fill="#223351"/>
<path d="M175.941 293.746L175.5 293L175.068 293.746H175.226L174.724 294.646H175.015L174.503 295.677H174.785L174.265 296.915H174.503L174 298.262H175.288V299H175.712V298.262H177L176.506 296.915H176.744L176.197 295.677H176.506L176.012 294.646H176.285L175.782 293.746H175.941Z" fill="#223351"/>
<path d="M182.941 298.746L182.5 298L182.068 298.746H182.226L181.724 299.646H182.015L181.503 300.677H181.785L181.265 301.915H181.503L181 303.262H182.288V304H182.712V303.262H184L183.506 301.915H183.744L183.197 300.677H183.506L183.012 299.646H183.285L182.782 298.746H182.941Z" fill="#223351"/>
<path d="M192.941 301.746L192.5 301L192.068 301.746H192.226L191.724 302.646H192.015L191.503 303.677H191.785L191.265 304.915H191.503L191 306.262H192.288V307H192.712V306.262H194L193.506 304.915H193.744L193.197 303.677H193.506L193.012 302.646H193.285L192.782 301.746H192.941Z" fill="#223351"/>
<path d="M194.941 302.746L194.5 302L194.068 302.746H194.226L193.724 303.646H194.015L193.503 304.677H193.785L193.265 305.915H193.503L193 307.262H194.288V308H194.712V307.262H196L195.506 305.915H195.744L195.197 304.677H195.506L195.012 303.646H195.285L194.782 302.746H194.941Z" fill="#223351"/>
<path d="M196.941 298.746L196.5 298L196.068 298.746H196.226L195.724 299.646H196.015L195.503 300.677H195.785L195.265 301.915H195.503L195 303.262H196.288V304H196.712V303.262H198L197.506 301.915H197.744L197.197 300.677H197.506L197.012 299.646H197.285L196.782 298.746H196.941Z" fill="#223351"/>
<path d="M196.941 301.746L196.5 301L196.068 301.746H196.226L195.724 302.646H196.015L195.503 303.677H195.785L195.265 304.915H195.503L195 306.262H196.288V307H196.712V306.262H198L197.506 304.915H197.744L197.197 303.677H197.506L197.012 302.646H197.285L196.782 301.746H196.941Z" fill="#223351"/>
<path d="M198.941 302.746L198.5 302L198.068 302.746H198.226L197.724 303.646H198.015L197.503 304.677H197.785L197.265 305.915H197.503L197 307.262H198.288V308H198.712V307.262H200L199.506 305.915H199.744L199.197 304.677H199.506L199.012 303.646H199.285L198.782 302.746H198.941Z" fill="#223351"/>
<path d="M194.941 298.746L194.5 298L194.068 298.746H194.226L193.724 299.646H194.015L193.503 300.677H193.785L193.265 301.915H193.503L193 303.262H194.288V304H194.712V303.262H196L195.506 301.915H195.744L195.197 300.677H195.506L195.012 299.646H195.285L194.782 298.746H194.941Z" fill="#223351"/>
<path d="M149.941 275.746L149.5 275L149.068 275.746H149.226L148.724 276.646H149.015L148.503 277.677H148.785L148.265 278.915H148.503L148 280.262H149.288V281H149.712V280.262H151L150.506 278.915H150.744L150.197 277.677H150.506L150.012 276.646H150.285L149.782 275.746H149.941Z" fill="#223351"/>
<path d="M138.941 275.746L138.5 275L138.068 275.746H138.226L137.724 276.646H138.015L137.503 277.677H137.785L137.265 278.915H137.503L137 280.262H138.288V281H138.712V280.262H140L139.506 278.915H139.744L139.197 277.677H139.506L139.012 276.646H139.285L138.782 275.746H138.941Z" fill="#223351"/>
<path d="M169.941 289.746L169.5 289L169.068 289.746H169.226L168.724 290.646H169.015L168.503 291.677H168.785L168.265 292.915H168.503L168 294.262H169.288V295H169.712V294.262H171L170.506 292.915H170.744L170.197 291.677H170.506L170.012 290.646H170.285L169.782 289.746H169.941Z" fill="#223351"/>
<path d="M142.941 273.746L142.5 273L142.068 273.746H142.226L141.724 274.646H142.015L141.503 275.677H141.785L141.265 276.915H141.503L141 278.262H142.288V279H142.712V278.262H144L143.506 276.915H143.744L143.197 275.677H143.506L143.012 274.646H143.285L142.782 273.746H142.941Z" fill="#223351"/>
<path d="M137.941 271.746L137.5 271L137.068 271.746H137.226L136.724 272.646H137.015L136.503 273.677H136.785L136.265 274.915H136.503L136 276.262H137.288V277.346H137.712V276.262H139L138.506 274.915H138.744L138.197 273.677H138.506L138.012 272.646H138.285L137.782 271.746H137.941Z" fill="#223351"/>
<path d="M128.588 266.995L128 266L127.424 266.995H127.635L126.965 268.195H127.353L126.671 269.569H127.047L126.353 271.221H126.671L126 273.015H127.718V274H128.282V273.015H130L129.341 271.221H129.659L128.929 269.569H129.341L128.682 268.195H129.047L128.376 266.995H128.588Z" fill="#223351"/>
<path d="M131.588 270.995L131 270L130.424 270.995H130.635L129.965 272.195H130.353L129.671 273.569H130.047L129.353 275.221H129.671L129 277.015H130.718V278H131.282V277.015H133L132.341 275.221H132.659L131.929 273.569H132.341L131.682 272.195H132.047L131.376 270.995H131.588Z" fill="#223351"/>
<path d="M135.588 268.995L135 268L134.424 268.995H134.635L133.965 270.195H134.353L133.671 271.569H134.047L133.353 273.221H133.671L133 275.015H134.718V276H135.282V275.015H137L136.341 273.221H136.659L135.929 271.569H136.341L135.682 270.195H136.047L135.376 268.995H135.588Z" fill="#223351"/>
<path d="M156.588 274.995L156 274L155.424 274.995H155.635L154.965 276.195H155.353L154.671 277.569H155.047L154.353 279.221H154.671L154 281.015H155.718V282H156.282V281.015H158L157.341 279.221H157.659L156.929 277.569H157.341L156.682 276.195H157.047L156.376 274.995H156.588Z" fill="#223351"/>
<path d="M114.941 270.746L114.5 270L114.068 270.746H114.226L113.724 271.646H114.015L113.503 272.677H113.785L113.265 273.915H113.503L113 275.262H114.288V276H114.712V275.262H116L115.506 273.915H115.744L115.197 272.677H115.506L115.012 271.646H115.285L114.782 270.746H114.941Z" fill="#223351"/>
<path d="M102.941 270.746L102.5 270L102.068 270.746H102.226L101.724 271.646H102.015L101.503 272.677H101.785L101.265 273.915H101.503L101 275.262H102.288V276H102.712V275.262H104L103.506 273.915H103.744L103.197 272.677H103.506L103.012 271.646H103.285L102.782 270.746H102.941Z" fill="#223351"/>
<path d="M99.9412 272.746L99.5 272L99.0676 272.746H99.2265L98.7235 273.646H99.0147L98.5029 274.677H98.7853L98.2647 275.915H98.5029L98 277.262H99.2882V278H99.7118V277.262H101L100.506 275.915H100.744L100.197 274.677H100.506L100.012 273.646H100.285L99.7824 272.746H99.9412Z" fill="#223351"/>
<path d="M95.9412 269.746L95.5 269L95.0676 269.746H95.2265L94.7235 270.646H95.0147L94.5029 271.677H94.7853L94.2647 272.915H94.5029L94 274.262H95.2882V275H95.7118V274.262H97L96.5059 272.915H96.7441L96.1971 271.677H96.5059L96.0118 270.646H96.2853L95.7824 269.746H95.9412Z" fill="#223351"/>
<path d="M87.9412 267.746L87.5 267L87.0676 267.746H87.2265L86.7235 268.646H87.0147L86.5029 269.677H86.7853L86.2647 270.915H86.5029L86 272.262H87.2882V273H87.7118V272.262H89L88.5059 270.915H88.7441L88.1971 269.677H88.5059L88.0118 268.646H88.2853L87.7824 267.746H87.9412Z" fill="#223351"/>
<path d="M83.9412 264.746L83.5 264L83.0676 264.746H83.2265L82.7235 265.646H83.0147L82.5029 266.677H82.7853L82.2647 267.915H82.5029L82 269.262H83.2882V270H83.7118V269.262H85L84.5059 267.915H84.7441L84.1971 266.677H84.5059L84.0118 265.646H84.2853L83.7824 264.746H83.9412Z" fill="#223351"/>
<path d="M69.9412 249.746L69.5 249L69.0676 249.746H69.2265L68.7235 250.646H69.0147L68.5029 251.677H68.7853L68.2647 252.915H68.5029L68 254.262H69.2882V255H69.7118V254.262H71L70.5059 252.915H70.7441L70.1971 251.677H70.5059L70.0118 250.646H70.2853L69.7824 249.746H69.9412Z" fill="#223351"/>
<path d="M71.9412 251.746L71.5 251L71.0676 251.746H71.2265L70.7235 252.646H71.0147L70.5029 253.677H70.7853L70.2647 254.915H70.5029L70 256.262H71.2882V257H71.7118V256.262H73L72.5059 254.915H72.7441L72.1971 253.677H72.5059L72.0118 252.646H72.2853L71.7824 251.746H71.9412Z" fill="#223351"/>
<path d="M74.9412 255.746L74.5 255L74.0676 255.746H74.2265L73.7235 256.646H74.0147L73.5029 257.677H73.7853L73.2647 258.915H73.5029L73 260.262H74.2882V261H74.7118V260.262H76L75.5059 258.915H75.7441L75.1971 257.677H75.5059L75.0118 256.646H75.2853L74.7824 255.746H74.9412Z" fill="#223351"/>
<path d="M78.9412 258.746L78.5 258L78.0676 258.746H78.2265L77.7235 259.646H78.0147L77.5029 260.677H77.7853L77.2647 261.915H77.5029L77 263.262H78.2882V264H78.7118V263.262H80L79.5059 261.915H79.7441L79.1971 260.677H79.5059L79.0118 259.646H79.2853L78.7824 258.746H78.9412Z" fill="#223351"/>
<path d="M80.9412 263.746L80.5 263L80.0676 263.746H80.2265L79.7235 264.646H80.0147L79.5029 265.677H79.7853L79.2647 266.915H79.5029L79 268.262H80.2882V269H80.7118V268.262H82L81.5059 266.915H81.7441L81.1971 265.677H81.5059L81.0118 264.646H81.2853L80.7824 263.746H80.9412Z" fill="#223351"/>
<path d="M76.9412 257.746L76.5 257L76.0676 257.746H76.2265L75.7235 258.646H76.0147L75.5029 259.677H75.7853L75.2647 260.915H75.5029L75 262.262H76.2882V263H76.7118V262.262H78L77.5059 260.915H77.7441L77.1971 259.677H77.5059L77.0118 258.646H77.2853L76.7824 257.746H76.9412Z" fill="#223351"/>
<path d="M67.9412 253.746L67.5 253L67.0676 253.746H67.2265L66.7235 254.646H67.0147L66.5029 255.677H66.7853L66.2647 256.915H66.5029L66 258.262H67.2882V259H67.7118V258.262H69L68.5059 256.915H68.7441L68.1971 255.677H68.5059L68.0118 254.646H68.2853L67.7824 253.746H67.9412Z" fill="#223351"/>
<path d="M65.9412 251.746L65.5 251L65.0676 251.746H65.2265L64.7235 252.646H65.0147L64.5029 253.677H64.7853L64.2647 254.915H64.5029L64 256.262H65.2882V257H65.7118V256.262H67L66.5059 254.915H66.7441L66.1971 253.677H66.5059L66.0118 252.646H66.2853L65.7824 251.746H65.9412Z" fill="#223351"/>
<path d="M63.9412 255.746L63.5 255L63.0676 255.746H63.2265L62.7235 256.646H63.0147L62.5029 257.677H62.7853L62.2647 258.915H62.5029L62 260.262H63.2882V261H63.7118V260.262H65L64.5059 258.915H64.7441L64.1971 257.677H64.5059L64.0118 256.646H64.2853L63.7824 255.746H63.9412Z" fill="#223351"/>
<path d="M44.9412 263.746L44.5 263L44.0676 263.746H44.2265L43.7235 264.646H44.0147L43.5029 265.677H43.7853L43.2647 266.915H43.5029L43 268.262H44.2882V269H44.7118V268.262H46L45.5059 266.915H45.7441L45.1971 265.677H45.5059L45.0118 264.646H45.2853L44.7824 263.746H44.9412Z" fill="#223351"/>
<path d="M42.9412 267.746L42.5 267L42.0676 267.746H42.2265L41.7235 268.646H42.0147L41.5029 269.677H41.7853L41.2647 270.915H41.5029L41 272.262H42.2882V273H42.7118V272.262H44L43.5059 270.915H43.7441L43.1971 269.677H43.5059L43.0118 268.646H43.2853L42.7824 267.746H42.9412Z" fill="#223351"/>
<path d="M40.9412 267.746L40.5 267L40.0676 267.746H40.2265L39.7235 268.646H40.0147L39.5029 269.677H39.7853L39.2647 270.915H39.5029L39 272.262H40.2882V273H40.7118V272.262H42L41.5059 270.915H41.7441L41.1971 269.677H41.5059L41.0118 268.646H41.2853L40.7824 267.746H40.9412Z" fill="#223351"/>
<path d="M38.9412 271.746L38.5 271L38.0676 271.746H38.2265L37.7235 272.646H38.0147L37.5029 273.677H37.7853L37.2647 274.915H37.5029L37 276.262H38.2882V277H38.7118V276.262H40L39.5059 274.915H39.7441L39.1971 273.677H39.5059L39.0118 272.646H39.2853L38.7824 271.746H38.9412Z" fill="#223351"/>
<path d="M35.9412 271.746L35.5 271L35.0676 271.746H35.2265L34.7235 272.646H35.0147L34.5029 273.677H34.7853L34.2647 274.915H34.5029L34 276.262H35.2882V277H35.7118V276.262H37L36.5059 274.915H36.7441L36.1971 273.677H36.5059L36.0118 272.646H36.2853L35.7824 271.746H35.9412Z" fill="#223351"/>
<path d="M32.9412 274.746L32.5 274L32.0676 274.746H32.2265L31.7235 275.646H32.0147L31.5029 276.677H31.7853L31.2647 277.915H31.5029L31 279.262H32.2882V280H32.7118V279.262H34L33.5059 277.915H33.7441L33.1971 276.677H33.5059L33.0118 275.646H33.2853L32.7824 274.746H32.9412Z" fill="#223351"/>
<path d="M33.9412 275.746L33.5 275L33.0676 275.746H33.2265L32.7235 276.646H33.0147L32.5029 277.677H32.7853L32.2647 278.915H32.5029L32 280.262H33.2882V281H33.7118V280.262H35L34.5059 278.915H34.7441L34.1971 277.677H34.5059L34.0118 276.646H34.2853L33.7824 275.746H33.9412Z" fill="#223351"/>
<path d="M30.9412 273.746L30.5 273L30.0676 273.746H30.2265L29.7235 274.646H30.0147L29.5029 275.677H29.7853L29.2647 276.915H29.5029L29 278.262H30.2882V279H30.7118V278.262H32L31.5059 276.915H31.7441L31.1971 275.677H31.5059L31.0118 274.646H31.2853L30.7824 273.746H30.9412Z" fill="#223351"/>
<path d="M37.9412 269.746L37.5 269L37.0676 269.746H37.2265L36.7235 270.646H37.0147L36.5029 271.677H36.7853L36.2647 272.915H36.5029L36 274.262H37.2882V275H37.7118V274.262H39L38.5059 272.915H38.7441L38.1971 271.677H38.5059L38.0118 270.646H38.2853L37.7824 269.746H37.9412Z" fill="#223351"/>
<path d="M42.9412 263.746L42.5 263L42.0676 263.746H42.2265L41.7235 264.646H42.0147L41.5029 265.677H41.7853L41.2647 266.915H41.5029L41 268.262H42.2882V269H42.7118V268.262H44L43.5059 266.915H43.7441L43.1971 265.677H43.5059L43.0118 264.646H43.2853L42.7824 263.746H42.9412Z" fill="#223351"/>
<path d="M112.941 271.746L112.5 271L112.068 271.746H112.226L111.724 272.646H112.015L111.503 273.677H111.785L111.265 274.915H111.503L111 276.262H112.288V277H112.712V276.262H114L113.506 274.915H113.744L113.197 273.677H113.506L113.012 272.646H113.285L112.782 271.746H112.941Z" fill="#223351"/>
<path d="M107.941 270.746L107.5 270L107.068 270.746H107.226L106.724 271.646H107.015L106.503 272.677H106.785L106.265 273.915H106.503L106 275.262H107.288V276H107.712V275.262H109L108.506 273.915H108.744L108.197 272.677H108.506L108.012 271.646H108.285L107.782 270.746H107.941Z" fill="#223351"/>
<path d="M110.941 272.746L110.5 272L110.068 272.746H110.226L109.724 273.646H110.015L109.503 274.677H109.785L109.265 275.915H109.503L109 277.262H110.288V278H110.712V277.262H112L111.506 275.915H111.744L111.197 274.677H111.506L111.012 273.646H111.285L110.782 272.746H110.941Z" fill="#223351"/>
<path d="M105.941 270.746L105.5 270L105.068 270.746H105.226L104.724 271.646H105.015L104.503 272.677H104.785L104.265 273.915H104.503L104 275.262H105.288V276H105.712V275.262H107L106.506 273.915H106.744L106.197 272.677H106.506L106.012 271.646H106.285L105.782 270.746H105.941Z" fill="#223351"/>
<path d="M8.84502 286.774C6.41669 288.716 2.89732 289.815 0 291V400H360V314.667H183.147C181.996 314.667 181.148 313.94 180.059 313.94C179.177 313.94 177.787 314.203 176.971 313.86C174.736 312.919 172.68 312.164 170.593 311.216C169.192 310.579 167.589 310.466 166.234 309.863C165.137 309.376 164.897 308.53 163.529 308.491C160.834 308.414 158.354 306.649 155.9 305.948C154.452 305.534 153.512 303.845 151.863 303.324C148.731 302.335 145.331 303.041 142.054 303.041C139.889 303.041 137.666 302.704 135.515 302.476C133.323 302.244 131.009 301.225 128.834 301.225C128.182 301.225 127.726 300.483 127.179 300.155C125.15 298.938 123.427 297.728 121.508 296.32C119.588 294.913 118.585 294.686 116.341 294.686C114.425 294.686 111.903 295.211 110.165 294.242C107.218 292.598 105.499 288.835 103.948 285.966L103.91 285.896C103.143 284.475 100.859 280.245 99.0033 281.445C98.1724 281.983 97.4089 282.192 97.4089 283.242C97.4089 284.269 97.5021 285.349 97.3887 286.37C97.2567 287.558 97.3924 289.142 95.9557 288.954C93.444 288.624 90.4075 287.71 87.8824 288.227C86.3353 288.543 85.8499 290.283 85.0567 291.416C83.3003 293.925 81.3173 294.511 78.4367 295.614C76.356 296.411 75.0436 297.258 73.3505 298.682C71.3062 300.401 71.1251 301.294 68.3652 301.043C65.6548 300.797 62.9298 300.862 60.2112 300.862C56.73 300.862 55.4324 301.446 52.4903 302.77L52.3802 302.819C49.3605 304.178 48.0703 297.955 45.1748 297.955C43.8614 297.955 43.9514 297.682 42.8941 297.087C42.1424 296.665 41.0016 296.865 40.1693 296.865C38.7229 296.865 35.4739 296.248 34.1951 297.047C33.0836 297.742 27.4032 297.753 26.6466 297.148C25.6443 296.346 24.0749 295.006 23.3769 293.959C22.6286 292.837 18.6478 291.779 17.3018 291.779C16.5426 291.779 14.8667 289.365 13.9917 288.832C13.0075 288.233 10.2295 285.666 8.84502 286.774Z" fill="#1C2E4F"/>
<path d="M109.882 284.617L109 283L108.135 284.617H108.453L107.447 286.567H108.029L107.006 288.8H107.571L106.529 291.483H107.006L106 294.4H108.576V296H109.424V294.4H112L111.012 291.483H111.488L110.394 288.8H111.012L110.024 286.567H110.571L109.565 284.617H109.882Z" fill="#1C2E4F"/>
<path d="M104.882 279.617L104 278L103.135 279.617H103.453L102.447 281.567H103.029L102.006 283.8H102.571L101.529 286.483H102.006L101 289.4H103.576V291H104.424V289.4H107L106.012 286.483H106.488L105.394 283.8H106.012L105.024 281.567H105.571L104.565 279.617H104.882Z" fill="#1C2E4F"/>
<path d="M82.8824 286.617L82 285L81.1353 286.617H81.4529L80.4471 288.567H81.0294L80.0059 290.8H80.5706L79.5294 293.483H80.0059L79 296.4H81.5765V298H82.4235V296.4H85L84.0118 293.483H84.4882L83.3941 290.8H84.0118L83.0235 288.567H83.5706L82.5647 286.617H82.8824Z" fill="#1C2E4F"/>
<path d="M78.8824 284.617L78 283L77.1353 284.617H77.4529L76.4471 286.567H77.0294L76.0059 288.8H76.5706L75.5294 291.483H76.0059L75 294.4H77.5765V296H78.4235V294.4H81L80.0118 291.483H80.4882L79.3941 288.8H80.0118L79.0235 286.567H79.5706L78.5647 284.617H78.8824Z" fill="#1C2E4F"/>
<path d="M74.8824 290.617L74 289L73.1353 290.617H73.4529L72.4471 292.567H73.0294L72.0059 294.8H72.5706L71.5294 297.483H72.0059L71 300.4H73.5765V302H74.4235V300.4H77L76.0118 297.483H76.4882L75.3941 294.8H76.0118L75.0235 292.567H75.5706L74.5647 290.617H74.8824Z" fill="#1C2E4F"/>
<path d="M35.8824 294.617L35 293L34.1353 294.617H34.4529L33.4471 296.567H34.0294L33.0059 298.8H33.5706L32.5294 301.483H33.0059L32 304.4H34.5765V306H35.4235V304.4H38L37.0118 301.483H37.4882L36.3941 298.8H37.0118L36.0235 296.567H36.5706L35.5647 294.617H35.8824Z" fill="#1C2E4F"/>
<path d="M38.8824 288.617L38 287L37.1353 288.617H37.4529L36.4471 290.567H37.0294L36.0059 292.8H36.5706L35.5294 295.483H36.0059L35 298.4H37.5765V300H38.4235V298.4H41L40.0118 295.483H40.4882L39.3941 292.8H40.0118L39.0235 290.567H39.5706L38.5647 288.617H38.8824Z" fill="#1C2E4F"/>
<path d="M34.8824 284.617L34 283L33.1353 284.617H33.4529L32.4471 286.567H33.0294L32.0059 288.8H32.5706L31.5294 291.483H32.0059L31 294.4H33.5765V296H34.4235V294.4H37L36.0118 291.483H36.4882L35.3941 288.8H36.0118L35.0235 286.567H35.5706L34.5647 284.617H34.8824Z" fill="#1C2E4F"/>
<path d="M113.882 288.617L113 287L112.135 288.617H112.453L111.447 290.567H112.029L111.006 292.8H111.571L110.529 295.483H111.006L110 298.4H112.576V300H113.424V298.4H116L115.012 295.483H115.488L114.394 292.8H115.012L114.024 290.567H114.571L113.565 288.617H113.882Z" fill="#1C2E4F"/>
<path d="M119.882 284.617L119 283L118.135 284.617H118.453L117.447 286.567H118.029L117.006 288.8H117.571L116.529 291.483H117.006L116 294.4H118.576V296H119.424V294.4H122L121.012 291.483H121.488L120.394 288.8H121.012L120.024 286.567H120.571L119.565 284.617H119.882Z" fill="#1C2E4F"/>
<path d="M125.882 287.617L125 286L124.135 287.617H124.453L123.447 289.567H124.029L123.006 291.8H123.571L122.529 294.483H123.006L122 297.4H124.576V299H125.424V297.4H128L127.012 294.483H127.488L126.394 291.8H127.012L126.024 289.567H126.571L125.565 287.617H125.882Z" fill="#1C2E4F"/>
<path d="M131.882 295.617L131 294L130.135 295.617H130.453L129.447 297.567H130.029L129.006 299.8H129.571L128.529 302.483H129.006L128 305.4H130.576V307H131.424V305.4H134L133.012 302.483H133.488L132.394 299.8H133.012L132.024 297.567H132.571L131.565 295.617H131.882Z" fill="#1C2E4F"/>
<path d="M128.882 293.617L128 292L127.135 293.617H127.453L126.447 295.567H127.029L126.006 297.8H126.571L125.529 300.483H126.006L125 303.4H127.576V305H128.424V303.4H131L130.012 300.483H130.488L129.394 297.8H130.012L129.024 295.567H129.571L128.565 293.617H128.882Z" fill="#1C2E4F"/>
<path d="M135.882 298.617L135 297L134.135 298.617H134.453L133.447 300.567H134.029L133.006 302.8H133.571L132.529 305.483H133.006L132 308.4H134.576V310H135.424V308.4H138L137.012 305.483H137.488L136.394 302.8H137.012L136.024 300.567H136.571L135.565 298.617H135.882Z" fill="#1C2E4F"/>
<path d="M141.882 299.617L141 298L140.135 299.617H140.453L139.447 301.567H140.029L139.006 303.8H139.571L138.529 306.483H139.006L138 309.4H140.576V311H141.424V309.4H144L143.012 306.483H143.488L142.394 303.8H143.012L142.024 301.567H142.571L141.565 299.617H141.882Z" fill="#1C2E4F"/>
<path d="M140.882 295.617L140 294L139.135 295.617H139.453L138.447 297.567H139.029L138.006 299.8H138.571L137.529 302.483H138.006L137 305.4H139.576V307H140.424V305.4H143L142.012 302.483H142.488L141.394 299.8H142.012L141.024 297.567H141.571L140.565 295.617H140.882Z" fill="#1C2E4F"/>
<path d="M147.882 294.617L147 293L146.135 294.617H146.453L145.447 296.567H146.029L145.006 298.8H145.571L144.529 301.483H145.006L144 304.4H146.576V306H147.424V304.4H150L149.012 301.483H149.488L148.394 298.8H149.012L148.024 296.567H148.571L147.565 294.617H147.882Z" fill="#1C2E4F"/>
<path d="M154.882 298.617L154 297L153.135 298.617H153.453L152.447 300.567H153.029L152.006 302.8H152.571L151.529 305.483H152.006L151 308.4H153.576V310H154.424V308.4H157L156.012 305.483H156.488L155.394 302.8H156.012L155.024 300.567H155.571L154.565 298.617H154.882Z" fill="#1C2E4F"/>
<path d="M159.882 301.617L159 300L158.135 301.617H158.453L157.447 303.567H158.029L157.006 305.8H157.571L156.529 308.483H157.006L156 311.4H158.576V313H159.424V311.4H162L161.012 308.483H161.488L160.394 305.8H161.012L160.024 303.567H160.571L159.565 301.617H159.882Z" fill="#1C2E4F"/>
<path d="M151.882 293.617L151 292L150.135 293.617H150.453L149.447 295.567H150.029L149.006 297.8H149.571L148.529 300.483H149.006L148 303.4H150.576V305H151.424V303.4H154L153.012 300.483H153.488L152.394 297.8H153.012L152.024 295.567H152.571L151.565 293.617H151.882Z" fill="#1C2E4F"/>
<path d="M269.155 305.54C271.583 307.483 275.103 308.581 278 309.767V400H0V364L94.853 333.433C96.0036 333.433 96.8521 332.707 97.941 332.707C98.8233 332.707 100.213 332.97 101.029 332.626C103.264 331.685 105.32 330.931 107.407 329.982C108.808 329.345 110.411 329.232 111.766 328.63C112.863 328.142 113.103 327.296 114.471 327.257C117.166 327.18 119.646 325.415 122.1 324.714C123.548 324.301 124.488 322.611 126.137 322.091C129.269 321.101 132.669 321.808 135.946 321.808C138.111 321.808 140.334 321.471 142.485 321.243C144.677 321.01 146.991 319.991 149.166 319.991C149.818 319.991 150.274 319.25 150.821 318.922C152.85 317.704 154.573 316.494 156.492 315.087C158.412 313.68 159.415 313.452 161.659 313.452C163.575 313.452 166.097 313.977 167.835 313.008C170.782 311.365 170.449 311.869 172 309C172.727 307.655 173.5 305.417 176 305.417C177.5 303.5 178 301.5 180.591 302.008C181.5 302.187 183.954 304.396 184.067 305.417C184.199 306.604 184.063 308.188 185.5 308C188.012 307.671 187.592 306.477 190.118 306.993C191.665 307.31 192.15 309.049 192.943 310.182C194.7 312.692 196.683 313.277 199.563 314.381C201.644 315.177 202.956 316.025 204.65 317.448C206.694 319.167 206.875 320.061 209.635 319.81C212.345 319.563 215.07 319.628 217.789 319.628C221.27 319.628 222.568 320.212 225.51 321.536L225.62 321.586C228.639 322.945 229.93 316.722 232.825 316.722C234.139 316.722 234.049 316.449 235.106 315.854C235.858 315.431 236.998 315.632 237.831 315.632C239.277 315.632 242.526 315.014 243.805 315.814C244.916 316.508 250.597 316.52 251.353 315.914C252.356 315.113 253.925 313.772 254.623 312.726C255.371 311.603 259.352 310.546 260.698 310.546C261.457 310.546 263.133 308.132 264.008 307.599C264.993 307 267.771 304.433 269.155 305.54Z" fill="#12264B"/>
<path d="M118.824 315.487L117.5 313L116.203 315.487H116.679L115.171 318.487H116.044L114.509 321.923H115.356L113.794 326.051H114.509L113 330.538H116.865V333H118.135V330.538H122L120.518 326.051H121.232L119.591 321.923H120.518L119.035 318.487H119.856L118.347 315.487H118.824Z" fill="#12264B"/>
<path d="M115.824 321.487L114.5 319L113.203 321.487H113.679L112.171 324.487H113.044L111.509 327.923H112.356L110.794 332.051H111.509L110 336.538H113.865V339H115.135V336.538H119L117.518 332.051H118.232L116.591 327.923H117.518L116.035 324.487H116.856L115.347 321.487H115.824Z" fill="#12264B"/>
<path d="M127.824 318.487L126.5 316L125.203 318.487H125.679L124.171 321.487H125.044L123.509 324.923H124.356L122.794 329.051H123.509L122 333.538H125.865V336H127.135V333.538H131L129.518 329.051H130.232L128.591 324.923H129.518L128.035 321.487H128.856L127.347 318.487H127.824Z" fill="#12264B"/>
<path d="M111.824 320.487L110.5 318L109.203 320.487H109.679L108.171 323.487H109.044L107.509 326.923H108.356L106.794 331.051H107.509L106 335.538H109.865V338H111.135V335.538H115L113.518 331.051H114.232L112.591 326.923H113.518L112.035 323.487H112.856L111.347 320.487H111.824Z" fill="#12264B"/>
<path d="M104.824 323.487L103.5 321L102.203 323.487H102.679L101.171 326.487H102.044L100.509 329.923H101.356L99.7941 334.051H100.509L99 338.538H102.865V341H104.135V338.538H108L106.518 334.051H107.232L105.591 329.923H106.518L105.035 326.487H105.856L104.347 323.487H104.824Z" fill="#12264B"/>
<path d="M98.8235 327.487L97.5 325L96.2029 327.487H96.6794L95.1706 330.487H96.0441L94.5088 333.923H95.3559L93.7941 338.051H94.5088L93 342.538H96.8647V345H98.1353V342.538H102L100.518 338.051H101.232L99.5912 333.923H100.518L99.0353 330.487H99.8559L98.3471 327.487H98.8235Z" fill="#12264B"/>
<path d="M123.824 314.487L122.5 312L121.203 314.487H121.679L120.171 317.487H121.044L119.509 320.923H120.356L118.794 325.051H119.509L118 329.538H121.865V332H123.135V329.538H127L125.518 325.051H126.232L124.591 320.923H125.518L124.035 317.487H124.856L123.347 314.487H123.824Z" fill="#12264B"/>
<path d="M131.824 315.487L130.5 313L129.203 315.487H129.679L128.171 318.487H129.044L127.509 321.923H128.356L126.794 326.051H127.509L126 330.538H129.865V333H131.135V330.538H135L133.518 326.051H134.232L132.591 321.923H133.518L132.035 318.487H132.856L131.347 315.487H131.824Z" fill="#12264B"/>
<path d="M136.824 311.487L135.5 309L134.203 311.487H134.679L133.171 314.487H134.044L132.509 317.923H133.356L131.794 322.051H132.509L131 326.538H134.865V329H136.135V326.538H140L138.518 322.051H139.232L137.591 317.923H138.518L137.035 314.487H137.856L136.347 311.487H136.824Z" fill="#12264B"/>
<path d="M143.824 307.487L142.5 305L141.203 307.487H141.679L140.171 310.487H141.044L139.509 313.923H140.356L138.794 318.051H139.509L138 322.538H141.865V325H143.135V322.538H147L145.518 318.051H146.232L144.591 313.923H145.518L144.035 310.487H144.856L143.347 307.487H143.824Z" fill="#12264B"/>
<path d="M149.824 303.487L148.5 301L147.203 303.487H147.679L146.171 306.487H147.044L145.509 309.923H146.356L144.794 314.051H145.509L144 318.538H147.865V321H149.135V318.538H153L151.518 314.051H152.232L150.591 309.923H151.518L150.035 306.487H150.856L149.347 303.487H149.824Z" fill="#12264B"/>
<path d="M155.824 309.487L154.5 307L153.203 309.487H153.679L152.171 312.487H153.044L151.509 315.923H152.356L150.794 320.051H151.509L150 324.538H153.865V327H155.135V324.538H159L157.518 320.051H158.232L156.591 315.923H157.518L156.035 312.487H156.856L155.347 309.487H155.824Z" fill="#12264B"/>
<path d="M160.824 311.487L159.5 309L158.203 311.487H158.679L157.171 314.487H158.044L156.509 317.923H157.356L155.794 322.051H156.509L155 326.538H158.865V329H160.135V326.538H164L162.518 322.051H163.232L161.591 317.923H162.518L161.035 314.487H161.856L160.347 311.487H160.824Z" fill="#12264B"/>
<path d="M165.824 304.487L164.5 302L163.203 304.487H163.679L162.171 307.487H163.044L161.509 310.923H162.356L160.794 315.051H161.509L160 319.538H163.865V322H165.135V319.538H169L167.518 315.051H168.232L166.591 310.923H167.518L166.035 307.487H166.856L165.347 304.487H165.824Z" fill="#12264B"/>
<path d="M171.824 304.487L170.5 302L169.203 304.487H169.679L168.171 307.487H169.044L167.509 310.923H168.356L166.794 315.051H167.509L166 319.538H169.865V322H171.135V319.538H175L173.518 315.051H174.232L172.591 310.923H173.518L172.035 307.487H172.856L171.347 304.487H171.824Z" fill="#12264B"/>
<path d="M179.824 286.487L178.5 284L177.203 286.487H177.679L176.171 289.487H177.044L175.509 292.923H176.356L174.794 297.051H175.509L174 301.538H177.865V304H179.135V301.538H183L181.518 297.051H182.232L180.591 292.923H181.518L180.035 289.487H180.856L179.347 286.487H179.824Z" fill="#12264B"/>
<path d="M175.824 295.487L174.5 293L173.203 295.487H173.679L172.171 298.487H173.044L171.509 301.923H172.356L170.794 306.051H171.509L170 310.538H173.865V313H175.135V310.538H179L177.518 306.051H178.232L176.591 301.923H177.518L176.035 298.487H176.856L175.347 295.487H175.824Z" fill="#12264B"/>
<path d="M185.824 299.487L184.5 297L183.203 299.487H183.679L182.171 302.487H183.044L181.509 305.923H182.356L180.794 310.051H181.509L180 314.538H183.865V317H185.135V314.538H189L187.518 310.051H188.232L186.591 305.923H187.518L186.035 302.487H186.856L185.347 299.487H185.824Z" fill="#12264B"/>
<path d="M192.824 305.487L191.5 303L190.203 305.487H190.679L189.171 308.487H190.044L188.509 311.923H189.356L187.794 316.051H188.509L187 320.538H190.865V323H192.135V320.538H196L194.518 316.051H195.232L193.591 311.923H194.518L193.035 308.487H193.856L192.347 305.487H192.824Z" fill="#12264B"/>
<path d="M196.824 305.487L195.5 303L194.203 305.487H194.679L193.171 308.487H194.044L192.509 311.923H193.356L191.794 316.051H192.509L191 320.538H194.865V323H196.135V320.538H200L198.518 316.051H199.232L197.591 311.923H198.518L197.035 308.487H197.856L196.347 305.487H196.824Z" fill="#12264B"/>
<path d="M189.824 296.487L188.5 294L187.203 296.487H187.679L186.171 299.487H187.044L185.509 302.923H186.356L184.794 307.051H185.509L184 311.538H187.865V314H189.135V311.538H193L191.518 307.051H192.232L190.591 302.923H191.518L190.035 299.487H190.856L189.347 296.487H189.824Z" fill="#12264B"/>
<path d="M202.824 303.487L201.5 301L200.203 303.487H200.679L199.171 306.487H200.044L198.509 309.923H199.356L197.794 314.051H198.509L197 318.538H200.865V321H202.135V318.538H206L204.518 314.051H205.232L203.591 309.923H204.518L203.035 306.487H203.856L202.347 303.487H202.824Z" fill="#12264B"/>
<path d="M237.647 238.949L232.5 229L227.456 238.949H229.309L223.441 250.949H226.838L220.868 264.692H224.162L218.088 281.205H220.868L215 299.154H230.029V309H234.971V299.154H250L244.235 281.205H247.015L240.632 264.692H244.235L238.471 250.949H241.662L235.794 238.949H237.647Z" fill="#1C1918"/>
<path d="M227.353 238.949L232.5 229C231.433 232.501 230.974 234.405 228.125 238.67C228.125 238.67 229.082 237.957 229.438 238.67C230.75 241.308 223.75 250.538 223.75 250.538C223.75 250.538 226.156 249.659 226.812 250.538C228.125 252.297 221.562 264.165 221.562 264.165C221.562 264.165 224.124 262.782 224.625 264.165C226.375 269 218.938 280.429 218.938 280.429C218.938 280.429 220.345 279.693 221.125 280.868C222.875 283.066 215 299.154 215 299.154C215 299.154 228.562 297.132 230.029 299.154C231.314 300.925 230.029 309 230.029 309V299.154H215L220.765 281.205H217.985L224.147 264.692H220.765L226.529 250.949H223.338L229.206 238.949H227.353Z" fill="#5F6E82"/>
<path d="M238.979 247.143C243.76 246.187 247.137 243 252.755 243H360L360 400.128L0 400.628V327.628C10.6042 327.628 32.5231 338.656 43 337.128C59.2352 334.76 79.5 334.75 79.5 334.75C79.5 334.75 112.892 335.147 128 347.628C139.5 357.128 154 358.628 200.5 353.128C202.768 351.184 206.241 349.202 209.142 348.477C212.698 347.588 191.752 288.847 195 287.128C196.101 286.545 209.296 274.498 210.5 274.128C211.529 273.811 214.968 269.064 216 268.628C218.092 267.745 229.374 265.754 231 264.128C231.959 263.169 259 263.628 246 255.628C249.398 255.439 228.081 255.846 229.295 252.404C229.676 251.325 231.483 249.22 232.422 248.516C234.09 247.264 237.005 247.538 238.979 247.143Z" fill="#1C1918"/>
<path d="M127.235 348.273C127.719 347.914 127.5 347.449 127.5 347C132.197 349.181 135.584 350.075 142.03 351.141C148.476 352.206 182.96 352.303 200.93 349.969C204.923 348.387 208.916 347.655 208.916 347.655C209.327 347.715 210.839 348.174 211.083 348.387C212.061 349.241 214.461 348.696 215.948 348.924C216.732 349.044 217.083 349.613 217.491 349.969C218.151 350.545 219.049 351.008 219.67 351.608C220.529 352.437 220.696 353.144 222.266 353.622C224.211 354.213 226.154 354.814 228.176 355.313C230.387 355.858 232.334 356.527 234.42 357.194C236.389 357.823 237.973 358.342 239.489 359.322C241.767 360.793 244.191 362.715 244.828 364.727C244.928 365.044 245.231 365.811 244.673 366.053C243.953 366.364 241.992 366.147 241.179 366.167C239.312 366.212 236.68 366.81 235.979 367.938C235.427 368.828 237.04 369.652 237.783 370.356C239.042 371.55 240.931 372.78 241.407 374.185C241.49 374.428 241.599 374.805 241.04 374.855C239.657 374.978 238.131 374.866 236.738 374.883C233.307 374.925 229.713 375.016 226.331 375.382C225.67 375.453 225.167 375.604 224.486 375.624C219.691 375.768 214.624 375.757 211.026 373.729C209.943 373.119 208.338 373.441 207.018 373.249C205.394 373.013 203.908 372.67 202.349 372.347C200.977 372.062 199.145 372.234 197.712 372.18C196.666 372.141 194.797 372.02 194.088 372.584C193.829 372.79 193.48 372.933 193.272 373.164C192.976 373.489 192.756 373.856 192.268 374.104C191.069 374.712 189.497 374.946 187.949 374.731C186.214 374.49 184.601 373.957 182.856 373.715C181.267 373.494 179.621 373.421 178.023 373.221C177.312 373.131 176.677 372.958 175.95 372.926C174.827 372.877 173.577 372.905 172.489 372.698C172.052 372.615 171.62 372.427 171.159 372.399C170.046 372.331 168.665 372.306 167.559 372.394C167.128 372.428 166.251 373.706 166.089 373.89C165.764 374.261 165.446 374.625 165.347 375.04C165.232 375.516 165.252 376.645 164.62 376.992C164.445 377.088 161.94 376.274 161.731 376.194C160.177 375.599 158.718 374.977 157.061 374.484C155.966 374.158 154.676 373.792 153.698 373.363C152.419 372.802 151.47 371.765 150.499 371.026C149.559 370.311 148.517 370.439 147.144 370.157C145.586 369.837 144.492 369.15 143.283 368.532C142.436 368.1 142.283 368.598 141.585 368.888C140.675 369.267 139.097 369.829 137.944 369.829C137.26 369.829 137.132 369.904 136.556 370.1C135.529 370.45 134.406 370.728 133.275 370.941C132.211 371.141 130.83 371.372 129.961 371.786C129.705 371.908 129.422 372.138 129.079 372.138C128.057 372.138 127.012 372.174 125.994 372.119C124.553 372.04 124.081 371.245 124.231 370.503C124.396 369.686 125.237 367.309 123.104 367.093C122.662 367.048 121.683 366.885 121.243 367.045C120.272 367.401 119.291 367.77 118.419 368.204C116.853 368.986 116.165 370.344 114.452 370.979C113.784 371.226 112.863 371.138 112.133 371.264C110.998 371.459 110.209 371.297 109.538 372.014C109.183 372.392 109.062 372.851 108.615 373.202C108.027 373.662 106.915 373.989 105.979 374.123C103.894 374.421 102.068 374.177 100.101 373.729C99.69 373.635 100.65 373.255 100.844 373.13C101.411 372.767 102.071 372.509 102.371 372.024C102.589 371.67 102.405 371.264 102.542 370.898C102.809 370.183 103.434 369.565 103.611 368.822C103.699 368.456 104.025 368.219 104.199 367.881C104.328 367.632 104.232 367.305 104.232 367.045C104.232 366.478 101.163 367.055 101.163 366.623C101.163 366.565 101.398 366.497 101.44 366.442C101.617 366.21 101.587 365.963 101.587 365.715V364.832C101.587 364.589 101.564 364.343 101.587 364.1C101.617 363.785 102.771 363.711 102.901 363.293C102.982 363.034 103.635 362.512 103.938 362.305C104.297 362.059 104.396 361.699 104.746 361.455C105.849 360.684 107.427 360.274 108.64 359.569C109.529 359.051 110.393 358.516 111.17 357.963C111.45 357.764 111.698 357.307 112.101 357.179C112.406 357.083 113.085 357.089 113.309 356.985C113.742 356.783 114.369 356.744 114.803 356.533C115.38 356.254 115.719 355.694 116.166 355.341C117.02 354.667 117.402 353.762 118.435 353.137L118.459 353.123C119.125 352.72 119.519 352.481 120.435 352.206C121.002 352.036 122.542 351.8 122.729 351.365C122.825 351.141 122.745 350.859 122.745 350.629C122.745 349.664 123.625 349.585 124.982 349.119C125.418 348.969 125.755 348.763 126.206 348.625C126.52 348.528 127.014 348.436 127.235 348.273Z" fill="url(#paint1_radial)"/>
<path d="M85 335C125 337.75 119.5 342 129 348C128.5 353.5 124 341 108 339L107.996 339C98.0113 337.751 93.9989 337.25 85 335Z" fill="url(#paint2_radial)"/>
<path d="M23.2941 231.047L15.5 216L7.86176 231.047H10.6676L1.78235 249.197H6.92647L-2.11471 269.985H2.87353L-6.32353 294.96H-2.11471L-11 322.108H11.7588V337H19.2412V322.108H42L33.2706 294.96H37.4794L27.8147 269.985H33.2706L24.5412 249.197H29.3735L20.4882 231.047H23.2941Z" fill="#1C1918"/>
<path d="M23.294 231.047L15.4999 216C17.9255 222.012 19.4791 225.163 22.4999 230.5C22.4999 230.5 19.9999 229.842 19.9999 231.047C19.9999 237.5 29.3735 249.197 29.3735 249.197C29.3735 249.197 24.5042 247.487 23.9999 249C23.4999 250.5 26.9999 262.5 33.2705 269.985L24.5411 249.197H29.3735L20.4882 231.047H23.294Z" fill="url(#paint3_radial)"/>
<path d="M63.2941 238.047L55.5 223L47.8618 238.047H50.6676L41.7824 256.197H46.9265L37.8853 276.985H42.8735L33.6765 301.96H37.8853L29 329.108H51.7588V344H59.2412V329.108H82L73.2706 301.96H77.4794L67.8147 276.985H73.2706L64.5412 256.197H69.3735L60.4882 238.047H63.2941Z" fill="#1C1918"/>
<path d="M63.2942 238.047L55.5001 223C57.7407 228.978 59.0302 232.308 62.5001 237.5H60.0001C60.5193 245.135 64.6108 248.594 68.5001 255.5C68.5001 255.5 64.6794 253.594 64.0001 256C63.2942 258.5 69.3736 272.5 72.5001 276.5C72.5001 276.5 67.8771 275.184 67.0001 276.5C66.0001 278 72.5001 293.5 77.4795 301.96L67.8148 276.985H73.2707L64.5413 256.197H69.3736L60.4883 238.047H63.2942Z" fill="url(#paint4_radial)"/>
<path d="M98.8824 259.317L93 248L87.2353 259.317H89.3529L82.6471 272.967H86.5294L79.7059 288.6H83.4706L76.5294 307.383H79.7059L73 327.8H90.1765V339H95.8235V327.8H113L106.412 307.383H109.588L102.294 288.6H106.412L99.8235 272.967H103.471L96.7647 259.317H98.8824Z" fill="#1C1918"/>
<path d="M98.8824 259.317L93 248C94.2189 251.983 94.7439 254.148 98 259C98 259 96.9059 258.188 96.5 259C95 262 103 272.5 103 272.5C103 272.5 100.25 271.5 99.5 272.5C98 274.5 105.5 288 105.5 288C105.5 288 102.572 286.427 102 288C100 293.5 108.5 306.5 108.5 306.5C108.5 306.5 106.891 305.663 106 307C104 309.5 113 327.8 113 327.8C113 327.8 97.5 325.5 95.8235 327.8C94.355 329.815 95.8235 339 95.8235 339V327.8H113L106.412 307.383H109.588L102.294 288.6H106.412L99.8235 272.967H103.471L96.7647 259.317H98.8824Z" fill="url(#paint5_radial)"/>
<path d="M252 225H256V243H252V225Z" fill="#1C1918"/>
<path d="M252 225C252 225 254.5 225 256 225C251 225 252.3 232 253 235.5C254 240.5 252 243 252 243V225Z" fill="#5F6E82"/>
<rect x="287" y="225" width="4" height="18" fill="#1C1918"/>
<path d="M287 225C287 225 289.5 225 291 225C286 225 286.8 227.5 287.5 231C288.5 236 287 236 287 236L287 225Z" fill="#5F6E82"/>
<rect x="322" y="225" width="4" height="18" fill="#1C1918"/>
<rect x="357" y="225" width="4" height="18" fill="#1C1918"/>
<rect x="252" y="228" width="108" height="2" fill="#1C1918"/>
<rect x="252" y="237" width="108" height="2" fill="#1C1918"/>
<path d="M331.706 143.047L339.5 128L347.138 143.047H344.332L353.218 161.197H348.074L357.115 181.985H352.126L361.324 206.96H357.115L366 234.108H343.241V249H335.759V234.108H313L321.729 206.96H317.521L327.185 181.985H321.729L330.459 161.197H325.626L334.512 143.047H331.706Z" fill="#1C1918"/>
<path d="M331.706 143.047L339.5 128C337.568 133.62 336.189 136.786 332.5 142.5C332.5 142.5 335.201 141.859 335 143.047C334.5 146 328.5 157.5 325.626 161.197L334.512 143.047H331.706Z" fill="#5F6E82"/>
<path d="M216 268.628C214.968 269.064 211.529 273.811 210.5 274.128C209.319 274.491 196.605 286.085 195.077 287.082C195.051 287.097 195.026 287.113 195 287.128C194.957 287.151 194.918 287.183 194.884 287.226C193.637 288.63 196.468 298.997 200.072 310.85C204.998 327.899 211.209 347.96 209.142 348.477L209.083 348.491C206.224 349.206 204.98 349.517 202 352C205 350.5 207.5 349.523 210.5 349C212.261 348.693 205.341 328.183 200.072 310.85C196.634 298.955 193.823 288.526 194.884 287.226C194.919 287.186 194.958 287.153 195 287.128C195.021 287.117 195.047 287.101 195.077 287.082C202.105 282.84 216.573 270.658 216 268.628Z" fill="url(#paint6_radial)"/>
</g>
<defs>
<filter id="filter0_d" x="32" y="116" width="263" height="263" filterUnits="userSpaceOnUse" color-interpolation-filters="sRGB">
<feFlood flood-opacity="0" result="BackgroundImageFix"/>
<feColorMatrix in="SourceAlpha" type="matrix" values="0 0 0 0 0 0 0 0 0 0 0 0 0 0 0 0 0 0 127 0"/>
<feOffset/>
<feGaussianBlur stdDeviation="50"/>
<feColorMatrix type="matrix" values="0 0 0 0 1 0 0 0 0 0.8 0 0 0 0 0 0 0 0 1 0"/>
<feBlend mode="normal" in2="BackgroundImageFix" result="effect1_dropShadow"/>
<feBlend mode="normal" in="SourceGraphic" in2="effect1_dropShadow" result="shape"/>
</filter>
<radialGradient id="paint0_radial" cx="0" cy="0" r="1" gradientUnits="userSpaceOnUse" gradientTransform="translate(163.5 256) rotate(-89.8881) scale(256 453.85)">
<stop stop-color="#FFF9BE"/>
<stop offset="0.184106" stop-color="#B7A594"/>
<stop offset="0.254144" stop-color="#325181"/>
<stop offset="1" stop-color="#1C1918"/>
</radialGradient>
<radialGradient id="paint1_radial" cx="0" cy="0" r="1" gradientUnits="userSpaceOnUse" gradientTransform="translate(175.473 352.303) rotate(93.6417) scale(39.2923 62.4341)">
<stop stop-color="#5F6E82"/>
<stop offset="1" stop-color="#132748"/>
</radialGradient>
<radialGradient id="paint2_radial" cx="0" cy="0" r="1" gradientUnits="userSpaceOnUse" gradientTransform="translate(115.5 338.5) rotate(152.819) scale(20.7966 20.9605)">
<stop stop-color="#5F6E82"/>
<stop offset="1" stop-color="#132748"/>
</radialGradient>
<radialGradient id="paint3_radial" cx="0" cy="0" r="1" gradientUnits="userSpaceOnUse" gradientTransform="translate(22 220.5) rotate(86.4531) scale(121.232 57.5945)">
<stop stop-color="#5F6E82"/>
<stop offset="1" stop-color="#132748"/>
</radialGradient>
<radialGradient id="paint4_radial" cx="0" cy="0" r="1" gradientUnits="userSpaceOnUse" gradientTransform="translate(56 226.5) rotate(77.074) scale(93.8789 72.4888)">
<stop stop-color="#5F6E82"/>
<stop offset="1" stop-color="#132748"/>
</radialGradient>
<radialGradient id="paint5_radial" cx="0" cy="0" r="1" gradientUnits="userSpaceOnUse" gradientTransform="translate(103 261) rotate(75.8354) scale(108.292 38.2151)">
<stop stop-color="#5F6E82"/>
<stop offset="1" stop-color="#132748"/>
</radialGradient>
<radialGradient id="paint6_radial" cx="0" cy="0" r="1" gradientUnits="userSpaceOnUse" gradientTransform="translate(185.5 359.5) rotate(-77.5703) scale(125.44 43.5811)">
<stop stop-color="#5F6E82"/>
<stop offset="1" stop-color="#132748"/>
</radialGradient>
<clipPath id="clip0">
<rect width="360" height="400" fill="white"/>
</clipPath>
</defs>
</svg>
